<?xml version="1.0" encoding="utf-8"?>
<!-- Generator: Adobe Illustrator 15.0.0, SVG Export Plug-In . SVG Version: 6.00 Build 0)  -->
<!DOCTYPE svg PUBLIC "-//W3C//DTD SVG 1.1//EN" "http://www.w3.org/Graphics/SVG/1.1/DTD/svg11.dtd">
<svg version="1.1" xmlns="http://www.w3.org/2000/svg" xmlns:xlink="http://www.w3.org/1999/xlink" x="0px" y="0px" width="100px"
	 height="100px" viewBox="0 0 100 100" enable-background="new 0 0 100 100" xml:space="preserve">
<g id="Layer_2">
	<rect fill="#DBCC90" width="100" height="100"/>
</g>
<g id="Layer_1">
	<path fill="#603913" d="M51.587,21.365c0.004,0.001,0.004,0.001,0.01,0.001C51.614,21.365,51.6,21.365,51.587,21.365z"/>
	<path fill="#603913" d="M51.587,21.365c-0.004,0-0.005,0-0.006,0c-0.005,0-0.006,0.001-0.01,0.001
		C51.574,21.366,51.581,21.366,51.587,21.365z"/>
	<path fill="#603913" d="M21.413,69.658l0.206-0.359l-0.509,0.572c0.391,0.217,0.801,0.389,1.206,0.46
		c0.483,0.088,0.962,0.044,1.385-0.151c0.17-0.076,0.327-0.184,0.475-0.302l-1.991-0.158L21.413,69.658z"/>
	<path fill="#603913" d="M21.694,70.552c-2.304-0.873-5.515-4.613-7.646-8.194c-2.132-3.583-2.603-7.606-3.274-8.465
		c-0.671-0.859-1.56,0.265-2.886-0.273c-1.327-0.537-2.94-9.441-2.329-10.49c0.611-1.05,1.683-6.517,4.718-2.877
		c0.91,1.091,1.793,1.929,2.588,2.572L13.2,42.82c-0.792-0.674-1.52-1.425-2.191-2.206c-0.179-0.212-0.344-0.419-0.524-0.641
		c-0.176-0.218-0.384-0.447-0.605-0.646c-0.223-0.202-0.477-0.392-0.781-0.531c-0.299-0.139-0.677-0.216-1.044-0.14
		c-0.368,0.071-0.68,0.269-0.918,0.489c-0.243,0.224-0.432,0.471-0.596,0.723c-0.328,0.508-0.564,1.037-0.782,1.563
		c-0.223,0.519-0.395,1.064-0.625,1.502l-0.026,0.053l-0.039,0.1c-0.021,0.062-0.03,0.102-0.042,0.149
		c-0.02,0.089-0.032,0.175-0.043,0.255c-0.019,0.161-0.028,0.312-0.03,0.461c-0.007,0.299,0.004,0.588,0.021,0.874
		c0.071,1.144,0.236,2.255,0.45,3.362c0.21,1.107,0.482,2.201,0.833,3.284c0.182,0.542,0.384,1.075,0.668,1.606
		c0.155,0.265,0.285,0.533,0.628,0.796c0.079,0.064,0.243,0.124,0.28,0.135c0.058,0.02,0.165,0.053,0.239,0.067
		c0.161,0.037,0.326,0.058,0.49,0.06c0.649,0.023,1.254-0.275,1.624-0.253c0.086,0.01,0.154,0.03,0.224,0.083
		c0.069,0.05,0.148,0.138,0.197,0.225c0.121,0.198,0.221,0.455,0.313,0.709c0.36,1.031,0.67,2.113,1.034,3.169
		c0.369,1.055,0.77,2.104,1.269,3.109c0.492,1.01,1.088,1.961,1.704,2.894c1.246,1.853,2.596,3.652,4.26,5.195
		c0.418,0.386,0.858,0.751,1.34,1.073c0.486,0.323,1.01,0.606,1.626,0.753c0.601,0.149,1.284,0.122,1.883-0.135
		c0.043-0.019,0.081-0.044,0.124-0.063l0.104-0.542C23.696,70.727,22.842,70.988,21.694,70.552z"/>
	<polygon fill="#603913" points="22.232,69.226 22.548,69.254 22.391,68.952 	"/>
	<polygon fill="#603913" points="22.779,69.278 24.44,69.437 24.527,68.981 24.103,68.932 22.982,68.934 	"/>
	<path fill="#603913" d="M20.609,66.274l-0.27,0.19l-0.249,0.175l0.012,0.145C20.271,66.614,20.441,66.444,20.609,66.274z"/>
	<polygon fill="#603913" points="18.895,65.817 18.991,65.718 18.648,65.378 18.687,65.75 	"/>
	<polygon fill="#603913" points="18.716,66.01 18.895,65.817 18.687,65.75 	"/>
	<polygon fill="#603913" points="21.589,66.104 21.619,65.925 21.304,65.783 21.3,65.787 21.265,66.433 	"/>
	<path fill="#603913" d="M19.321,59.869c-0.082-0.319-0.22-0.613-0.41-0.864c0.188,2.345-0.425,4.845-0.425,4.845l0.04,0.366
		c0.121-0.256,0.239-0.522,0.338-0.787c0.149-0.393,0.277-0.792,0.374-1.195c0.089-0.372,0.151-0.751,0.177-1.123
		c0.002-0.042,0.005-0.081,0.007-0.122C19.438,60.602,19.412,60.223,19.321,59.869z"/>
	<polygon fill="#603913" points="21.265,66.433 21.3,65.787 20.647,66.247 20.704,67.001 	"/>
	<path fill="#603913" d="M20.14,67.288l0.207,0.074l0.357-0.361l-0.056-0.754l-0.038,0.027c-0.168,0.17-0.338,0.34-0.506,0.51
		L20.14,67.288z"/>
	<polygon fill="#603913" points="20.16,67.553 20.347,67.362 20.14,67.288 	"/>
	<polygon fill="#603913" points="22.548,69.254 22.779,69.278 22.982,68.934 22.682,68.936 22.4,68.936 22.391,68.952 	"/>
	<polygon fill="#603913" points="21.687,65.514 21.304,65.783 21.619,65.925 	"/>
	<path fill="#603913" d="M21.589,66.104l-0.324,0.328l-0.047,0.871c0.069-0.07,0.138-0.142,0.207-0.211L21.589,66.104z"/>
	<path fill="#603913" d="M21.425,67.093c-0.069,0.069-0.137,0.141-0.207,0.211l-0.061,1.112l-0.022,0.422l0.078-0.47L21.425,67.093z
		"/>
	<polygon fill="#603913" points="19.195,65.918 18.991,65.718 18.895,65.817 	"/>
	<polygon fill="#603913" points="22.391,68.952 22.4,68.936 22.383,68.936 	"/>
	<polygon fill="#603913" points="21.813,69.078 21.979,68.937 21.939,68.937 	"/>
	<path fill="#603913" d="M19.69,66.41l-0.216-0.216l0.105,1.401l0.096,1.278l0.899-0.913c0.216-0.218,0.429-0.438,0.644-0.657
		l0.047-0.871l-0.562,0.568l0.038,0.508l-0.395-0.146l-0.187,0.19l-0.02-0.265l-0.395-0.146c0.119-0.118,0.238-0.239,0.358-0.357
		l-0.012-0.145l-0.099,0.071L19.69,66.41z"/>
	<polygon fill="#603913" points="20.741,67.509 20.704,67.001 20.347,67.362 	"/>
	<path fill="#603913" d="M19.745,67.142l0.395,0.146l-0.037-0.504C19.983,66.902,19.864,67.023,19.745,67.142z"/>
	<polygon fill="#603913" points="22.662,69.476 22.779,69.278 22.548,69.254 	"/>
	<path fill="#603913" d="M17.949,63.717l-0.022,0.097l0.009,0.094l0.212,2.161l0.12,1.235l0.864-0.903l0.267-0.28l-0.204-0.202
		l-0.301-0.101l-0.179,0.192l-0.029-0.26l-0.388-0.131l0.284-0.308l-0.14-0.138l-0.268-0.265l0.181-0.343
		c0.058-0.11,0.113-0.233,0.169-0.351l-0.04-0.366c0,0,0.613-2.5,0.425-4.845c-0.024-0.032-0.046-0.066-0.072-0.099
		c-0.124-0.145-0.219-0.234-0.41-0.387c-0.018-0.014-0.03-0.03-0.047-0.046c0.024,0.19,0.042,0.382,0.054,0.575
		C18.524,60.595,18.294,62.206,17.949,63.717z"/>
	<path fill="#603913" d="M22.662,69.476l-0.114-0.222l-0.316-0.028l0.159-0.273l-0.008-0.017l-0.403,0.001l-0.166,0.142
		l-0.194,0.221l-0.206,0.359l0.771,0.062l1.991,0.158c0.036-0.029,0.075-0.053,0.11-0.085c0.036-0.031,0.07-0.066,0.106-0.103
		l0.049-0.254l-1.661-0.158L22.662,69.476z"/>
	<path fill="#603913" d="M24.175,69.878c-0.148,0.118-0.305,0.226-0.475,0.302c-0.423,0.195-0.902,0.239-1.385,0.151
		c-0.405-0.071-0.815-0.243-1.206-0.46l-0.179,0.203l0.046-0.276c-0.025-0.016-0.052-0.027-0.077-0.043
		c-0.455-0.273-0.893-0.598-1.312-0.945c-1.663-1.416-3.105-3.124-4.367-4.938c-0.621-0.916-1.223-1.847-1.699-2.84
		c-0.477-0.993-0.87-2.029-1.19-3.087c-0.335-1.056-0.57-2.133-0.885-3.22c-0.085-0.273-0.168-0.546-0.316-0.832
		c-0.086-0.157-0.185-0.29-0.333-0.416c-0.145-0.124-0.345-0.208-0.534-0.235c-0.382-0.043-0.671,0.049-0.937,0.095
		c-0.265,0.053-0.506,0.083-0.736,0.066c-0.114-0.009-0.227-0.029-0.335-0.062c-0.079-0.021-0.262-0.09-0.25-0.102
		c-0.103-0.08-0.248-0.315-0.351-0.536c-0.218-0.462-0.381-0.983-0.534-1.502c-0.306-1.042-0.532-2.12-0.74-3.195
		c-0.195-1.078-0.369-2.167-0.454-3.244c-0.019-0.268-0.033-0.536-0.03-0.793c0.001-0.13,0.007-0.255,0.019-0.371
		c0.006-0.058,0.015-0.11,0.024-0.157l0.012-0.052c0,0.002-0.001,0.002-0.003,0.002c0-0.004,0.013-0.027,0.019-0.041
		c0.281-0.552,0.423-1.081,0.624-1.59c0.193-0.507,0.4-1.002,0.665-1.438c0.259-0.432,0.601-0.806,0.959-0.892
		c0.354-0.101,0.806,0.114,1.192,0.438c0.199,0.168,0.375,0.341,0.56,0.547c0.179,0.201,0.375,0.419,0.568,0.621
		c0.612,0.645,1.268,1.247,1.968,1.789l0.359-0.002c-0.795-0.644-1.678-1.481-2.588-2.572c-3.036-3.64-4.107,1.827-4.718,2.877
		c-0.611,1.049,1.002,9.953,2.329,10.49c1.327,0.538,2.215-0.586,2.886,0.273c0.671,0.858,1.142,4.882,3.274,8.465
		c2.132,3.581,5.343,7.321,7.646,8.194c1.148,0.437,2.002,0.175,2.571-0.197l0.087-0.462L24.175,69.878z"/>
	<path fill="#603913" d="M24.175,69.878l0.177,0.015l0.039-0.202c-0.036,0.036-0.07,0.071-0.106,0.103
		C24.25,69.825,24.211,69.849,24.175,69.878z"/>
	<polygon fill="#603913" points="18.299,65.619 18.687,65.75 18.648,65.378 18.583,65.312 	"/>
	<path fill="#603913" d="M25.539,72.977l-0.852,1.36l1.167-1.462C25.75,72.908,25.644,72.942,25.539,72.977z"/>
	<path fill="#603913" d="M26.989,78.738l0.035-2.075c-0.351,0.594-0.701,1.19-1.041,1.789L26.989,78.738z"/>
	<polygon fill="#603913" points="25.458,75.031 26.039,74.903 26.039,74.889 	"/>
	<path fill="#603913" d="M29.176,80.638l-0.007-0.039l-0.622,0.968l0.66,0.179c0.017-0.308,0.028-0.614,0.04-0.926l-0.058-0.146
		L29.176,80.638z"/>
	<path fill="#603913" d="M25.994,72.699l-0.428,0.236l-0.026,0.041c0.105-0.034,0.211-0.068,0.315-0.102L25.994,72.699z"/>
	<path fill="#603913" d="M30.505,82.555c-0.032-0.104-0.066-0.207-0.1-0.313c-0.065,0.099-0.134,0.191-0.2,0.29L30.505,82.555z"/>
	<polygon fill="#603913" points="28.512,78.205 28.767,78.29 28.685,77.819 	"/>
	<path fill="#603913" d="M25.422,73.016c0.039-0.014,0.079-0.025,0.117-0.039l0.026-0.041L25.422,73.016z"/>
	<polygon fill="#603913" points="26.084,74.878 26.039,74.889 26.039,74.903 26.084,74.894 	"/>
	<path fill="#603913" d="M27.973,79.408l0.392,0.121c-0.003-0.319-0.012-0.637-0.018-0.956l-0.128,0.289L27.973,79.408z"/>
	<path fill="#603913" d="M27.409,78.155c-0.036,0.062-0.072,0.122-0.108,0.186c0.018,0.407,0.035,0.814,0.059,1.223l0.061,1.034
		l-0.008-1.909L27.409,78.155z"/>
	<path fill="#603913" d="M28.347,78.573c0.006,0.319,0.015,0.637,0.018,0.956l-0.392-0.121l-0.552,1.231l0.022,0.382l0.825-1.178
		l0.163-0.236c-0.012-0.386-0.022-0.772-0.029-1.158L28.347,78.573z"/>
	<path fill="#603913" d="M30.405,82.241c0.034,0.106,0.068,0.21,0.1,0.313l-0.3-0.023C30.271,82.433,30.339,82.34,30.405,82.241
		c-0.017-0.055-0.035-0.11-0.053-0.167l-0.258,0.377c0.034,0.075,0.066,0.149,0.099,0.223l0.148,0.331l0.152-0.306
		c0.303-0.611,0.602-1.228,0.893-1.846c-0.002-0.01-0.004-0.021-0.007-0.028C31.05,81.293,30.726,81.768,30.405,82.241z"/>
	<path fill="#603913" d="M28.767,78.29l-0.254-0.085l-0.109,0.244c0.007,0.386,0.018,0.772,0.029,1.158l0.452-0.646L28.767,78.29z"
		/>
	<path fill="#603913" d="M27.402,76.532L27.4,76.026l-0.103,0.175c-0.091,0.154-0.182,0.309-0.273,0.462l-0.035,2.075l-1.006-0.286
		c0.34-0.599,0.69-1.195,1.041-1.789l0.003-0.142c0-0.015,0-0.028,0-0.042L26.855,76.7l-0.826,1.057l0.025-1.346l0.029-1.518
		l-0.045,0.01c-0.024,0.532-0.048,1.062-0.063,1.593l-0.066,2.217l-0.061,2.069l1.067-1.786c0.13-0.218,0.257-0.437,0.384-0.655
		c-0.026-0.616-0.051-1.234-0.076-1.853L27.402,76.532z"/>
	<path fill="#603913" d="M29.207,81.745l-0.66-0.179l0.622-0.968v-0.001l-0.285-1.636l-0.452,0.646
		c0.003,0.117,0.007,0.232,0.011,0.348c0.019,0.597,0.028,1.192,0.056,1.788l0.063,1.321l0.597-1.143l0.295-0.563l-0.207-0.54
		C29.235,81.131,29.224,81.438,29.207,81.745z"/>
	<path fill="#603913" d="M27.402,76.532l-0.178-0.044c0.024,0.618,0.049,1.236,0.076,1.853c0.036-0.063,0.073-0.124,0.108-0.186
		L27.402,76.532z"/>
	<path fill="#603913" d="M8.984,51.201c-0.064-0.128-0.124-0.257-0.186-0.386c-0.151,0.039-0.302,0.083-0.454,0.131L8.984,51.201z"
		/>
	<path fill="#603913" d="M12.945,44.536c-0.644-0.619-1.307-1.229-2.045-1.762c-0.37-0.267-0.753-0.521-1.173-0.739
		c-0.422-0.212-0.873-0.414-1.426-0.457c-0.275-0.02-0.583,0.013-0.875,0.147c-0.293,0.134-0.527,0.352-0.697,0.612
		c-0.278,0.414-0.463,0.914-0.558,1.393c-0.196,0.971-0.102,1.923,0.055,2.829c0.338,1.822,0.996,3.502,1.82,5.134l0.201,0.399
		l0.438-0.144c0.501-0.162,1.058-0.295,1.572-0.353c0.253-0.025,0.511-0.027,0.705,0.015c0.097,0.021,0.172,0.053,0.213,0.082
		c0.021,0.016,0.034,0.027,0.044,0.041c0.006,0.008,0.012,0.015,0.016,0.025c0.002,0,0.027,0.061,0.031,0.071
		c0.086,0.228,0.172,0.518,0.251,0.788l0.244,0.826l0.477,1.675c0.328,1.113,0.651,2.231,1.022,3.337
		c0.184,0.553,0.372,1.104,0.587,1.65c0.107,0.27,0.214,0.543,0.342,0.807c0.064,0.132,0.13,0.265,0.205,0.392
		c0.078,0.119,0.149,0.264,0.286,0.328c-0.121-0.083-0.167-0.231-0.224-0.358c-0.053-0.134-0.096-0.271-0.138-0.411
		c-0.081-0.276-0.157-0.555-0.226-0.835c-0.136-0.563-0.265-1.128-0.387-1.693l-0.722-3.402l-0.375-1.703
		c-0.131-0.578-0.246-1.119-0.444-1.736c-0.021-0.056-0.021-0.063-0.051-0.129c-0.024-0.056-0.054-0.111-0.089-0.166
		c-0.07-0.107-0.157-0.2-0.251-0.273c-0.189-0.151-0.39-0.226-0.573-0.275c-0.371-0.093-0.705-0.09-1.026-0.072
		c-0.481,0.033-0.927,0.117-1.374,0.237c0.062,0.129,0.122,0.258,0.186,0.386l-0.639-0.255c0.152-0.048,0.303-0.092,0.454-0.131
		c-0.303-0.642-0.581-1.316-0.82-1.988c-0.29-0.811-0.544-1.632-0.703-2.464c-0.159-0.827-0.225-1.67-0.101-2.444
		c0.066-0.391,0.179-0.739,0.384-1.067c0.148-0.237,0.354-0.354,0.694-0.344c0.334,0.009,0.726,0.134,1.097,0.301
		c0.375,0.17,0.745,0.383,1.104,0.615c0.719,0.471,1.419,0.995,2.093,1.555c1.081,0.896,2.12,1.855,3.142,2.837
		c-0.006-0.091-0.013-0.179-0.019-0.271C14.823,46.492,13.915,45.488,12.945,44.536z"/>
	<path fill="#603913" d="M44.521,6.056c2.491-1.271,1.406-3.971,2.129-4.008c0.857-0.044,0.334,2.224,2.787,4.049
		c25.361-0.405,36.278,14.779,37.875,22.737c0.447,2.233,1.04,7.355,1.389,10.559c0.02-0.011,0.037-0.021,0.055-0.031
		c-0.142-1.601-0.293-3.2-0.465-4.8c-0.137-1.265-0.278-2.528-0.446-3.792c-0.082-0.633-0.172-1.263-0.283-1.896
		c-0.114-0.636-0.273-1.265-0.466-1.88c-0.788-2.461-2.055-4.737-3.564-6.817c-1.517-2.079-3.302-3.959-5.274-5.611
		c-3.942-3.326-8.664-5.655-13.593-7.104c-4.883-1.42-9.979-1.971-15.035-1.911c0.046,0.035,0.087,0.074,0.134,0.109l-0.335-0.108
		c0.068-0.001,0.134-0.001,0.201-0.001c-0.546-0.432-1.004-0.95-1.324-1.558c-0.175-0.329-0.312-0.678-0.438-1.059
		c-0.065-0.191-0.124-0.388-0.214-0.613c-0.046-0.114-0.098-0.238-0.195-0.382c-0.089-0.137-0.279-0.333-0.546-0.401
		c-0.063-0.017-0.12-0.025-0.2-0.029l-0.057-0.001c-0.046,0-0.08,0.005-0.122,0.011c-0.164,0.02-0.355,0.133-0.453,0.255
		c-0.188,0.245-0.195,0.402-0.23,0.536c-0.046,0.264-0.053,0.466-0.072,0.669c-0.032,0.399-0.082,0.763-0.189,1.097
		c-0.197,0.645-0.63,1.137-1.234,1.463c0.036-0.005,0.072-0.011,0.11-0.015l-0.186,0.056c0.025-0.014,0.05-0.029,0.075-0.042
		c-2.197,0.246-4.382,0.658-6.51,1.286c-2.161,0.644-4.264,1.497-6.244,2.581c-1.979,1.084-3.843,2.383-5.52,3.892
		c-1.678,1.506-3.18,3.199-4.496,5.019c-2.626,3.65-4.526,7.774-5.774,12.055c-0.626,2.144-1.103,4.325-1.443,6.525
		c-0.301,1.96-0.49,3.938-0.526,5.916h0.001C14.045,37.873,16.445,9.054,44.521,6.056z"/>
	<path fill="#603913" d="M13.869,42.813c0.092-1.471,0.265-2.936,0.499-4.389c0.078-0.495,0.163-0.99,0.253-1.483
		c0.409-2.178,0.952-4.328,1.64-6.429c1.373-4.195,3.289-8.232,5.937-11.742c2.633-3.514,6.006-6.451,9.866-8.505
		c3.86-2.062,8.159-3.218,12.514-3.678l0.098-0.01l0.089-0.045c0.414-0.211,0.813-0.495,1.138-0.865
		c0.326-0.367,0.564-0.811,0.708-1.262c0.126-0.39,0.185-0.784,0.222-1.156c-0.063-0.188-0.121-0.377-0.181-0.528
		c-0.03-0.077-0.063-0.143-0.081-0.17c-0.024-0.032,0.004,0.015,0.067,0.03c0.011,0.003,0.02,0.004,0.035,0.005
		c0.015,0,0.024,0,0.037-0.003c0.063-0.005,0.16-0.062,0.189-0.106c0.058-0.083,0.017-0.03,0.01,0.035
		c-0.026,0.143-0.04,0.354-0.059,0.561c-0.006,0.059-0.013,0.118-0.019,0.177c0.004,0.01,0.006,0.02,0.011,0.027
		c0.132,0.403,0.293,0.825,0.505,1.225c0.42,0.805,1.049,1.503,1.765,2.033l0.149,0.111l0.186-0.003
		c5.035-0.083,10.094,0.438,14.93,1.817c4.836,1.353,9.425,3.615,13.346,6.759c1.955,1.572,3.733,3.372,5.255,5.371
		c1.516,1.999,2.791,4.203,3.611,6.571c0.427,1.178,0.644,2.415,0.852,3.67c0.207,1.25,0.39,2.508,0.565,3.767
		c0.219,1.609,0.431,3.218,0.641,4.829c0.018-0.012,0.037-0.021,0.056-0.034c-0.349-3.203-0.941-8.325-1.389-10.559
		C85.715,20.876,74.798,5.692,49.437,6.097c-2.453-1.825-1.93-4.094-2.787-4.049c-0.723,0.038,0.362,2.737-2.129,4.008
		C16.445,9.054,14.045,37.873,13.84,42.813H13.869L13.869,42.813z"/>
	<path fill="#603913" d="M28.522,69.823c-1.681-0.625-3.143-1.749-4.338-3.296l-0.11,0.572l-1.021,1.717l1.05,0.115h0.433
		l-0.009,0.05l0.633,0.069l0.734,0.08l-0.387,0.596c-0.167,0.258-0.337,0.444-0.533,0.625c-0.132,0.789-0.273,1.579-0.421,2.365
		c0.565-0.246,1.132-0.491,1.699-0.737l0.945-0.411l-0.502,0.933l-0.785,1.457l0.526-0.14l0.606-0.159l-0.004,0.646
		c-0.005,0.725-0.001,1.448-0.012,2.175l0.373-0.479v0.025l0.85-1.437l0.046,1.862c0.014,0.545,0.029,1.09,0.042,1.636l0.148-0.195
		l0.875-1.151l-0.025,1.43c-0.01,0.596-0.04,1.19-0.06,1.786c-0.006,0.168-0.011,0.336-0.017,0.503l0.047-0.075l0.337-0.521
		l0.187,0.567c0.18,0.544,0.35,1.094,0.522,1.644l0.018-0.025l0.966-1.412c-0.382-1.58-0.653-3.167-0.899-4.617
		C29.942,73.109,29.515,70.591,28.522,69.823z"/>
	<polygon fill="#603913" points="24.059,75.339 24.625,74.437 24.688,74.337 24.656,74.376 23.81,75.437 25.125,75.114 
		25.458,75.031 25.123,75.104 	"/>
	<path fill="#603913" d="M23.826,73.535l0.14-0.452c0.264-0.86,0.536-1.718,0.816-2.572c-0.19,0.151-0.399,0.278-0.622,0.386
		l-0.413,2.156l-0.19,0.995l0.886-0.489l0.978-0.543c-0.371,0.124-0.743,0.248-1.116,0.366L23.826,73.535z"/>
	<path fill="#603913" d="M29.453,81.359l0.234,0.606l0.267,0.691l0.141-0.206c-0.187-0.416-0.373-0.835-0.558-1.251L29.453,81.359z"
		/>
	<path fill="#603913" d="M13.831,43.073c0.001-0.086,0.006-0.172,0.008-0.26l-0.043,0.002L13.2,42.82
		c0.203,0.175,0.411,0.342,0.625,0.503C13.825,43.255,13.828,43.175,13.831,43.073z"/>
	<polygon fill="#603913" points="27.419,80.645 27.421,80.64 27.419,80.598 	"/>
	<path fill="#603913" d="M72.595,70.092l-0.582-0.894l1.072,0.225l1.683,0.353l-0.523-1.589l-0.313-0.956
		c-0.931,1.367-1.934,1.65-3.008,1.949c-0.963,0.269-1.958,0.547-3.016,1.83c-1.202,1.459-1.964,4.281-2.771,7.268
		c-0.298,1.109-0.606,2.249-0.949,3.364L64.959,83l0.19,0.334L65.342,83l0.941-1.652l0.313,1.733l0.118,0.65l0.273-0.601
		l0.728-1.576l0.482,1.942l0.155,0.629l0.182-0.622l1.833-6.247l0.435,0.639l0.742,1.257l0.248,0.423l-0.014-0.489l-0.131-4.31
		l1.309,0.308l0.082,0.04l0.434,0.221l-0.303-0.383l-0.11-0.138l-0.99-1.668l1.774,0.515l0.296,0.087l-0.089-0.299l-0.768-2.608
		C73.021,70.635,72.805,70.412,72.595,70.092z"/>
	<path fill="#603913" d="M75.784,67.932l-0.125-1.713l-0.11-1.514l1.09,1.075c0.275,0.27,0.546,0.547,0.818,0.821l0.115-1.582
		l0.101-1.343l0.91,0.984l0.377,0.409l0.096-0.834c-0.174-0.8-0.276-1.577-0.344-2.379c-0.063-0.83-0.079-1.672,0-2.52
		c0.085-0.844,0.255-1.705,0.666-2.51c0.109-0.207,0.225-0.375,0.296-0.526c0.081-0.165,0.159-0.34,0.228-0.52
		c0.14-0.361,0.267-0.735,0.378-1.117c0.442-1.533,0.736-3.13,0.995-4.728c0.273-1.596,0.484-3.206,0.687-4.817l0.005-0.034
		L82,45.071c1.101-0.483,2.098-1.191,3.006-1.972c0.904-0.789,1.735-1.658,2.479-2.598c0.185-0.237,0.412-0.49,0.662-0.708
		c0.151-0.136,0.32-0.255,0.498-0.367c-0.21-1.611-0.422-3.22-0.641-4.829c-0.176-1.259-0.358-2.517-0.565-3.767
		c-0.208-1.256-0.425-2.492-0.852-3.67c-0.82-2.369-2.096-4.572-3.611-6.571c-1.521-1.999-3.3-3.799-5.255-5.371
		c-3.921-3.144-8.51-5.406-13.346-6.759c-4.836-1.379-9.895-1.9-14.93-1.817L49.26,6.646L49.11,6.535
		c-0.716-0.53-1.345-1.228-1.765-2.033c-0.212-0.4-0.373-0.822-0.505-1.225c-0.005-0.008-0.007-0.018-0.011-0.027
		c-0.037,0.372-0.096,0.766-0.222,1.156C46.465,4.856,46.227,5.3,45.9,5.667c-0.324,0.37-0.724,0.653-1.138,0.865l-0.089,0.045
		l-0.098,0.01c-4.354,0.46-8.654,1.617-12.514,3.678c-3.859,2.054-7.232,4.992-9.866,8.505c-2.648,3.51-4.564,7.547-5.937,11.742
		c-0.688,2.101-1.231,4.251-1.64,6.429c-0.09,0.493-0.175,0.988-0.253,1.483c-0.231,1.454-0.406,2.918-0.499,4.389
		c-0.011,0.174-0.026,0.346-0.035,0.519c0.705,0.536,1.457,1.008,2.269,1.375l0.034,0.016l0.004,0.032
		c0.203,1.612,0.415,3.222,0.688,4.819c0.259,1.596,0.553,3.195,0.995,4.726c0.112,0.382,0.239,0.757,0.376,1.117
		c0.071,0.18,0.146,0.356,0.229,0.521c0.071,0.149,0.187,0.319,0.295,0.524c0.412,0.805,0.581,1.668,0.666,2.51
		c0.064,0.676,0.066,1.349,0.031,2.016c-0.002,0.041-0.005,0.08-0.007,0.122c-0.008,0.129-0.015,0.257-0.024,0.384
		c-0.065,0.8-0.169,1.578-0.343,2.378l0.095,0.835l0.378-0.409l0.91-0.985l0.1,1.342l0.117,1.583
		c0.272-0.275,0.542-0.551,0.818-0.82l1.089-1.075l-0.11,1.513l-0.1,1.358l0.942-0.777l0.641-0.256
		c-1.128-1.573-1.999-3.543-2.555-5.852c-1.527-6.351-0.185-13.6,3.195-17.236c1.805-1.945,4.058-2.84,6.651-2.646
		c0.31-0.035,0.625-0.053,0.936-0.053c2.123,0,3.918,0.803,5.821,1.652c0.515,0.229,1.045,0.467,1.585,0.688
		c0.264,0.107,0.542,0.216,0.827,0.319l8.804-0.162c0.188-0.106,0.366-0.214,0.526-0.318c0.475-0.308,0.93-0.654,1.368-0.989
		c1.654-1.261,3.367-2.565,6.765-2.565c0.696,0,1.454,0.057,2.249,0.168c3.113,0.434,7.103,1.166,10.354,3.001
		c5.378,3.034,7.396,8.231,6.17,15.885c-0.795,4.963-1.667,7.585-2.613,9.044l0.96,0.439L75.784,67.932z"/>
	<polygon fill="#603913" points="19.399,66.12 19.474,66.194 19.463,66.052 	"/>
	<path fill="#603913" d="M21.677,69.195l-0.588,0.506l0.046-0.863l-0.158,0.96c0.043,0.025,0.088,0.049,0.133,0.073l0.509-0.572
		L21.677,69.195z"/>
	<polygon fill="#603913" points="22.4,68.936 22.682,68.936 22.982,68.934 23.053,68.816 22.504,68.755 	"/>
	<path fill="#603913" d="M22.465,67.81l0.704-1.236l0.383,0.321l0.07-0.059l-0.046,0.078l0.383,0.321l-1.138,0.979l-0.315,0.541
		l0.548,0.062l1.021-1.717l0.11-0.572c-0.088-0.112-0.173-0.23-0.258-0.348l-0.641,0.256l-0.942,0.777l-0.054,0.744L22.465,67.81z"
		/>
	<polygon fill="#603913" points="24.103,68.932 23.053,68.816 22.982,68.934 	"/>
	<polygon fill="#603913" points="21.3,65.782 21.3,65.787 21.304,65.783 	"/>
	<polygon fill="#603913" points="21.72,68.217 21.883,68.3 22.289,67.957 22.343,67.213 21.752,67.702 	"/>
	<polygon fill="#603913" points="23.958,67.235 23.575,66.914 22.82,68.214 	"/>
	<path fill="#603913" d="M22.279,66.22l-0.421-0.188l-0.042,0.662C21.97,66.534,22.126,66.38,22.279,66.22z"/>
	<path fill="#603913" d="M20.647,66.247l0-0.01c-0.013,0.014-0.025,0.025-0.038,0.037L20.647,66.247z"/>
	<path fill="#603913" d="M19.405,65.275l-0.042-0.534l0.407,0.145l0.176-0.188l0.02,0.257l0.406,0.145l-0.368,0.384l0.086,1.156
		l0.249-0.175l0.27-0.19c0.013-0.012,0.024-0.023,0.038-0.037l-0.117-1.583l-0.1-1.342l-0.91,0.985l-0.378,0.409l0.086,0.757
		L19.405,65.275z"/>
	<polygon fill="#603913" points="23.169,66.573 22.465,67.81 23.552,66.895 	"/>
	<path fill="#603913" d="M18.864,63.429c-0.1,0.265-0.217,0.531-0.338,0.787l0.11,1.038l0.506-0.547l-0.095-0.835
		c-0.008,0.037-0.015,0.071-0.022,0.108l0.014-0.19l0.009,0.082c0.174-0.8,0.278-1.578,0.343-2.378
		c0.01-0.127,0.017-0.255,0.024-0.384c-0.025,0.372-0.087,0.751-0.177,1.123C19.141,62.637,19.014,63.036,18.864,63.429z"/>
	<polygon fill="#603913" points="18.648,65.378 18.991,65.718 19.228,65.464 19.142,64.707 18.636,65.254 	"/>
	<polygon fill="#603913" points="20.373,65.1 19.966,64.955 20.005,65.483 	"/>
	<path fill="#603913" d="M21.3,65.787v-0.005l0.003,0.001l0.383-0.27l-0.067,0.411l0.103,0.046l0.15-0.153l-0.014,0.214l0.421,0.188
		c-0.153,0.16-0.309,0.314-0.463,0.474l-0.064,1.009l0.591-0.489l0.1-1.358l0.11-1.513l-1.089,1.075
		c-0.276,0.27-0.545,0.545-0.818,0.82l0,0.01L21.3,65.787z"/>
	<path fill="#603913" d="M18.203,56.421c0.428,0.72,0.633,1.64,0.708,2.584c0.19,0.251,0.329,0.545,0.41,0.864
		c0.09,0.354,0.117,0.732,0.1,1.119c0.035-0.667,0.033-1.34-0.031-2.016c-0.084-0.842-0.254-1.705-0.666-2.51
		c-0.108-0.205-0.224-0.375-0.295-0.524c-0.083-0.165-0.159-0.342-0.229-0.521c-0.138-0.36-0.264-0.735-0.376-1.117
		c-0.442-1.53-0.736-3.13-0.995-4.726c-0.273-1.598-0.485-3.207-0.688-4.819l-0.004-0.032l-0.034-0.016
		c-0.812-0.367-1.564-0.839-2.269-1.375c-0.003,0.07-0.011,0.139-0.013,0.209c1.351,0.93,2.266,1.218,2.266,1.218
		S16.713,53.914,18.203,56.421z"/>
	<path fill="#603913" d="M19.024,63.98c0.008-0.037,0.015-0.071,0.022-0.108l-0.009-0.082L19.024,63.98z"/>
	<path fill="#603913" d="M25.01,69.823c0.038-0.108,0.071-0.216,0.107-0.324c0,0-0.055,0.092-0.159,0.223L25.01,69.823z"/>
	<polygon fill="#603913" points="19.363,64.741 19.405,65.275 19.771,64.886 	"/>
	<polygon fill="#603913" points="21.722,65.971 21.619,65.925 21.589,66.104 	"/>
	<path fill="#603913" d="M25.075,69.95l-0.024-0.049c-0.002,0.016-0.006,0.03-0.008,0.044L25.075,69.95z"/>
	<path fill="#603913" d="M24.958,69.722c-0.048,0.061-0.106,0.129-0.178,0.205l0.19,0.014c0.014-0.039,0.026-0.078,0.039-0.117
		L24.958,69.722z"/>
	<path fill="#603913" d="M13.821,43.541c0-0.002,0-0.081,0.003-0.218c-0.213-0.161-0.422-0.328-0.625-0.503l-0.694,0.006
		C12.731,43.202,13.521,43.335,13.821,43.541z"/>
	<polygon fill="#603913" points="21.883,68.3 21.72,68.217 21.704,68.451 	"/>
	<path fill="#603913" d="M24.971,69.94l-0.19-0.014c-0.132,0.136-0.304,0.29-0.516,0.428l-0.104,0.542
		c0.223-0.107,0.432-0.234,0.622-0.386C24.846,70.32,24.908,70.131,24.971,69.94z"/>
	<path fill="#603913" d="M25.508,69.727l0.387-0.596l-0.734-0.08l-0.633-0.069l-0.087,0.455l0.162,0.015
		c0.048-0.063,0.091-0.124,0.125-0.178l0.104,0.2l0.287,0.025c-0.021,0.136-0.046,0.269-0.067,0.402l0.024,0.049l-0.032-0.005
		c-0.022,0.136-0.045,0.271-0.068,0.406C25.17,70.171,25.34,69.984,25.508,69.727z"/>
	<path fill="#603913" d="M24.727,69.273c-0.033,0.054-0.077,0.115-0.125,0.178l0.228,0.022L24.727,69.273z"/>
	<polygon fill="#603913" points="22.276,68.143 22.289,67.957 21.883,68.3 22.119,68.419 	"/>
	<path fill="#603913" d="M21.213,68.368l-0.078,0.47l-0.046,0.863l0.588-0.506l0.125-0.22l0.317-0.557L21.883,68.3l-0.179,0.151
		l0.016-0.234l-0.368-0.185l0.4-0.33l0.064-1.009c-0.13,0.133-0.26,0.267-0.391,0.399L21.213,68.368z"/>
	<polygon fill="#603913" points="18.648,65.378 18.636,65.254 18.583,65.312 	"/>
	<polygon fill="#603913" points="21.72,68.217 21.752,67.702 21.352,68.032 	"/>
	<polygon fill="#603913" points="23.622,66.836 23.552,66.895 23.575,66.914 	"/>
	<path fill="#603913" d="M21.425,67.093c0.131-0.133,0.261-0.267,0.391-0.399l0.042-0.662l-0.137-0.061l-0.132,0.134L21.425,67.093z
		"/>
	<polygon fill="#603913" points="19.947,64.698 19.771,64.886 19.966,64.955 	"/>
	<polygon fill="#603913" points="21.619,69.299 21.813,69.078 21.677,69.195 	"/>
	<polygon fill="#603913" points="22.25,68.485 22.119,68.419 21.802,68.976 21.677,69.195 21.813,69.078 21.939,68.937 
		21.979,68.937 22.057,68.869 22.82,68.214 23.575,66.914 23.552,66.895 22.465,67.81 22.276,68.143 	"/>
	<polygon fill="#603913" points="22.465,67.81 22.289,67.957 22.276,68.143 	"/>
	<path fill="#603913" d="M25.117,69.499l-0.287-0.025l0.128,0.248C25.062,69.591,25.117,69.499,25.117,69.499z"/>
	<polygon fill="#603913" points="19.474,66.194 19.69,66.41 19.992,66.711 20.091,66.64 20.005,65.483 19.463,66.052 	"/>
	<polygon fill="#603913" points="22.383,68.936 22.4,68.936 22.504,68.755 22.278,68.731 	"/>
	<path fill="#603913" d="M18.176,64.909l0.268,0.265l0.14,0.138l0.053-0.058l-0.11-1.038c-0.056,0.117-0.111,0.24-0.169,0.351
		L18.176,64.909z"/>
	<polygon fill="#603913" points="20.005,65.483 19.966,64.955 19.771,64.886 19.405,65.275 19.463,66.052 	"/>
	<polygon fill="#603913" points="22.276,68.143 22.119,68.419 22.25,68.485 	"/>
	<polygon fill="#603913" points="21.979,68.937 22.383,68.936 22.278,68.731 22.504,68.755 22.82,68.214 22.057,68.869 	"/>
	<polygon fill="#603913" points="21.872,65.817 21.722,65.971 21.858,66.031 	"/>
	<path fill="#603913" d="M20.931,70.074l0.179-0.203c-0.045-0.024-0.089-0.048-0.133-0.073L20.931,70.074z"/>
	<path fill="#603913" d="M24.602,69.451l-0.162-0.015l-0.049,0.254C24.467,69.614,24.538,69.533,24.602,69.451z"/>
	<polygon fill="#603913" points="19.195,65.918 19.399,66.12 19.463,66.052 19.405,65.275 19.228,65.464 19.283,65.95 	"/>
	<polygon fill="#603913" points="19.283,65.95 19.228,65.464 18.991,65.718 19.195,65.918 	"/>
	<path fill="#603913" d="M24.83,69.474l-0.228-0.022c-0.064,0.082-0.135,0.163-0.211,0.239l-0.039,0.202l0.428,0.034
		c0.072-0.076,0.129-0.145,0.178-0.205L24.83,69.474z"/>
	<path fill="#603913" d="M24.265,70.354c0.211-0.138,0.383-0.292,0.516-0.428l-0.428-0.034L24.265,70.354z"/>
	<path fill="#603913" d="M27.456,79.249l0.518,0.159l0.246-0.546l0.128-0.289c-0.003-0.165-0.003-0.324-0.008-0.485L27.456,79.249z"
		/>
	<path fill="#603913" d="M28.224,76.741l-0.821-0.209l0.006,1.623C27.683,77.686,27.954,77.213,28.224,76.741z"/>
	<path fill="#603913" d="M29.176,80.638l0.013,0.036l0.058,0.146c0.004-0.118,0.008-0.239,0.013-0.359l-0.09,0.139L29.176,80.638z"
		/>
	<path fill="#603913" d="M24.463,73.206c0.031-0.163,0.06-0.326,0.091-0.489c-0.143,0.063-0.288,0.124-0.431,0.187L24.463,73.206z"
		/>
	<path fill="#603913" d="M26.065,74.28l0.602,0.486l-0.583,0.127l-0.029,1.518l-0.025,1.346l0.826-1.057l0.172-0.221
		c0.011-0.727,0.007-1.45,0.012-2.175l0.004-0.646l-0.606,0.159l-0.526,0.14l-0.502,0.934l-0.499-0.669l1-0.265l0.785-1.457
		l0.502-0.933l-0.945,0.411c-0.567,0.246-1.134,0.491-1.699,0.737c-0.031,0.163-0.06,0.326-0.091,0.489l-0.34-0.303
		c0.143-0.063,0.288-0.124,0.431-0.187c0.147-0.786,0.289-1.576,0.421-2.365c-0.039,0.033-0.077,0.069-0.117,0.105
		c-0.024,0.019-0.051,0.035-0.075,0.054c-0.281,0.854-0.552,1.712-0.816,2.572l-0.14,0.452l0.48-0.153
		c0.373-0.118,0.745-0.242,1.116-0.366l0.144-0.08l0.502-0.798l0.443,0.521c-0.219,0.071-0.438,0.143-0.656,0.216l-1.167,1.462
		l-0.063,0.1l-0.566,0.902l1.064-0.234l0.334-0.073l0.581-0.143C26.048,74.687,26.057,74.484,26.065,74.28z"/>
	<path fill="#603913" d="M29.286,80.637c0.082,0.188,0.167,0.375,0.25,0.563l0.272-0.521L29.286,80.637z"/>
	<path fill="#603913" d="M29.83,80.431l-0.187-0.567l-0.337,0.521l-0.047,0.075c-0.005,0.12-0.008,0.241-0.013,0.359l0.207,0.54
		l0.083-0.159c-0.083-0.188-0.168-0.375-0.25-0.563l0.523,0.042L29.537,81.2c0.185,0.416,0.371,0.835,0.558,1.251l0.258-0.377
		C30.18,81.524,30.009,80.975,29.83,80.431z"/>
	<path fill="#603913" d="M27.456,79.249l0.883-1.161c-0.014-0.546-0.029-1.091-0.042-1.636L28.25,74.59l-0.85,1.437l0.002,0.506
		l0.821,0.209c-0.27,0.472-0.541,0.944-0.815,1.414l0.002,0.533l0.008,1.909l0.002,0.042l0.552-1.231L27.456,79.249z"/>
	<path fill="#603913" d="M25.854,72.875c0.219-0.073,0.438-0.145,0.656-0.216l-0.443-0.521l-0.502,0.798l0.428-0.236L25.854,72.875z
		"/>
	<polygon fill="#603913" points="25.409,74.892 25.911,73.958 24.911,74.223 	"/>
	<path fill="#603913" d="M29.336,78.171l0.025-1.43l-0.875,1.151l-0.148,0.195c0.005,0.161,0.005,0.32,0.008,0.485l0.056-0.124
		c-0.002-0.094-0.006-0.188-0.006-0.282l0.116,0.038l0.173-0.386l0.082,0.471l0.48,0.156l-0.362,0.516l0.285,1.636v0.001l0.09-0.139
		c0.006-0.167,0.011-0.335,0.017-0.503C29.296,79.361,29.326,78.767,29.336,78.171z"/>
	<path fill="#603913" d="M26.065,74.28c-0.008,0.204-0.017,0.406-0.026,0.608l0.045-0.011v0.016l0.583-0.127L26.065,74.28z"/>
	<polygon fill="#603913" points="28.767,78.29 28.884,78.962 29.247,78.446 	"/>
	<path fill="#603913" d="M28.403,78.449l0.109-0.244l-0.116-0.038C28.397,78.261,28.401,78.355,28.403,78.449z"/>
	<path fill="#603913" d="M25.05,69.901c0.021-0.134,0.046-0.267,0.067-0.402c-0.037,0.108-0.07,0.216-0.107,0.324L25.05,69.901z"/>
	<path fill="#603913" d="M25.05,69.901l-0.041-0.078c-0.013,0.039-0.025,0.078-0.039,0.117l0.072,0.005
		C25.044,69.932,25.048,69.917,25.05,69.901z"/>
	<path fill="#603913" d="M24.971,69.94c-0.063,0.19-0.125,0.38-0.188,0.57c0.024-0.019,0.051-0.035,0.075-0.054
		c0.041-0.036,0.078-0.072,0.117-0.105c0.022-0.136,0.045-0.271,0.068-0.406L24.971,69.94z"/>
	<path fill="#603913" d="M15.689,47.815c0.179,0.171,0.356,0.343,0.534,0.516c-0.002-0.027-0.003-0.053-0.006-0.08
		c-0.181-0.235-0.361-0.474-0.547-0.706C15.676,47.637,15.683,47.725,15.689,47.815z"/>
	<path fill="#603913" d="M16.45,48.552c-0.075-0.102-0.155-0.2-0.232-0.301c0.002,0.027,0.003,0.053,0.006,0.08
		C16.298,48.406,16.375,48.479,16.45,48.552z"/>
	<path fill="#603913" d="M45.633,43.911c1.6-0.087,2.723-0.546,3.557-1.021l-8.804,0.162C41.821,43.58,43.542,44.025,45.633,43.911z
		"/>
	<path fill="#603913" d="M13.831,43.073c-0.003,0.102-0.006,0.182-0.007,0.25l0.001,0.002C13.828,43.241,13.83,43.157,13.831,43.073
		z"/>
	<path fill="#603913" d="M13.824,43.323c-0.003,0.137-0.003,0.216-0.003,0.218c-0.001-0.072,0.002-0.144,0.004-0.216L13.824,43.323z
		"/>
	<path fill="#603913" d="M13.84,42.813h-0.001c-0.001,0.088-0.007,0.174-0.008,0.26C13.833,42.996,13.837,42.908,13.84,42.813z"/>
	<path fill="#603913" d="M13.831,43.073c-0.001,0.084-0.003,0.168-0.006,0.252c0.003,0.002,0.006,0.004,0.009,0.007
		c0.009-0.173,0.023-0.345,0.035-0.519h0"/>
	<path fill="#603913" d="M13.825,43.325c-0.002,0.072-0.005,0.144-0.004,0.216c0.002-0.07,0.01-0.139,0.013-0.209
		C13.831,43.329,13.828,43.327,13.825,43.325z"/>
	<path fill="#603913" d="M67.625,70.779c3.465-4.206,6.322,1.683,8.637-12.766c1.367-8.545-1.591-13.029-5.99-15.511
		c-0.13-0.073-0.264-0.143-0.397-0.214l0,0c-0.001-0.001-0.001-0.003-0.003-0.003c-0.367-0.193-0.744-0.373-1.128-0.541
		c-0.003-0.003-0.008-0.005-0.011-0.006c-0.383-0.169-0.774-0.324-1.171-0.472c-0.003-0.001-0.008-0.002-0.015-0.004
		c-0.396-0.146-0.796-0.28-1.202-0.405c-0.007-0.002-0.014-0.004-0.02-0.006c-0.403-0.124-0.812-0.238-1.223-0.345
		c-0.009-0.003-0.02-0.005-0.027-0.008c-0.408-0.104-0.818-0.203-1.231-0.293c-0.012-0.001-0.024-0.005-0.037-0.008
		c-0.41-0.089-0.82-0.171-1.23-0.247c-0.015-0.003-0.027-0.005-0.04-0.007c-0.41-0.077-0.82-0.147-1.228-0.213
		c-0.013-0.001-0.024-0.003-0.036-0.005c-0.411-0.064-0.818-0.126-1.224-0.182c-0.179-0.025-0.352-0.047-0.523-0.065
		c-0.057-0.006-0.11-0.011-0.165-0.016c-0.113-0.013-0.226-0.023-0.336-0.032c-0.064-0.006-0.127-0.008-0.188-0.013
		c-0.099-0.008-0.195-0.014-0.291-0.018c-0.064-0.004-0.129-0.006-0.19-0.009c-0.091-0.004-0.181-0.006-0.269-0.008
		c-0.063-0.002-0.126-0.002-0.188-0.002c-0.087,0-0.17,0-0.252,0.002c-0.061,0.001-0.123,0.002-0.182,0.004
		c-0.082,0.003-0.163,0.006-0.241,0.011c-0.059,0.002-0.116,0.006-0.172,0.009c-0.078,0.006-0.156,0.012-0.233,0.019
		c-0.053,0.005-0.108,0.011-0.162,0.017c-0.076,0.008-0.152,0.017-0.226,0.027c-0.051,0.006-0.101,0.012-0.15,0.019
		c-0.077,0.012-0.152,0.022-0.226,0.036c-0.046,0.007-0.092,0.015-0.136,0.023c-0.08,0.014-0.157,0.03-0.234,0.046
		c-0.037,0.008-0.074,0.016-0.111,0.023c-0.092,0.021-0.182,0.044-0.271,0.067c-0.02,0.005-0.04,0.009-0.06,0.015
		c-0.109,0.03-0.217,0.062-0.323,0.094c-0.003,0.001-0.005,0.002-0.009,0.003c-0.101,0.032-0.199,0.064-0.296,0.099
		c-0.026,0.011-0.049,0.021-0.076,0.028c-0.073,0.028-0.147,0.055-0.219,0.083c-0.029,0.013-0.06,0.026-0.09,0.038
		c-0.065,0.027-0.13,0.054-0.193,0.083c-0.031,0.014-0.062,0.028-0.092,0.041c-0.062,0.029-0.122,0.059-0.183,0.087
		c-0.03,0.015-0.061,0.028-0.092,0.047c-0.06,0.028-0.117,0.059-0.174,0.089c-0.029,0.016-0.058,0.029-0.086,0.046
		c-0.06,0.032-0.116,0.064-0.174,0.096c-0.025,0.017-0.054,0.031-0.077,0.047c-0.062,0.035-0.121,0.07-0.18,0.106
		c-0.021,0.014-0.042,0.026-0.063,0.039c-0.065,0.04-0.129,0.08-0.19,0.121c-0.017,0.01-0.032,0.021-0.046,0.029
		c-0.074,0.049-0.147,0.098-0.22,0.147c-0.002,0.002-0.008,0.005-0.013,0.008c-0.671,0.461-1.285,0.964-1.937,1.435
		c-0.194,0.14-0.392,0.279-0.595,0.411c-1.107,0.721-2.391,1.295-4.264,1.396c-2.453,0.132-4.43-0.466-6.231-1.204
		c-0.386-0.157-0.763-0.323-1.136-0.487c-0.457-0.203-0.906-0.406-1.353-0.6c-0.032-0.015-0.064-0.027-0.096-0.041
		c-0.122-0.053-0.242-0.104-0.362-0.153c-0.049-0.021-0.098-0.042-0.146-0.062c-0.106-0.043-0.211-0.085-0.317-0.126
		c-0.055-0.022-0.11-0.043-0.163-0.063c-0.104-0.04-0.207-0.078-0.31-0.116c-0.054-0.019-0.109-0.039-0.162-0.058
		c-0.115-0.04-0.229-0.078-0.342-0.114c-0.042-0.015-0.085-0.029-0.129-0.042c-0.157-0.048-0.316-0.095-0.475-0.137
		c-0.017-0.006-0.035-0.01-0.054-0.014c-0.14-0.036-0.279-0.069-0.422-0.1c-0.051-0.011-0.104-0.021-0.157-0.031
		c-0.108-0.021-0.217-0.042-0.326-0.06c-0.061-0.011-0.122-0.018-0.184-0.027c-0.104-0.015-0.208-0.027-0.311-0.037
		c-0.065-0.007-0.129-0.013-0.195-0.018c-0.104-0.008-0.209-0.014-0.316-0.019c-0.064-0.002-0.128-0.005-0.193-0.006
		c-0.115-0.002-0.233,0.001-0.35,0.004c-0.057,0.001-0.112,0.001-0.168,0.005c-0.174,0.008-0.351,0.021-0.529,0.043
		c-0.156-0.013-0.309-0.02-0.462-0.024c-0.05-0.001-0.098,0-0.147,0c-0.101-0.001-0.203-0.001-0.303,0.001
		c-0.057,0.001-0.115,0.005-0.171,0.008c-0.09,0.004-0.181,0.01-0.27,0.016c-0.059,0.006-0.119,0.012-0.177,0.018
		c-0.085,0.009-0.17,0.02-0.254,0.032c-0.058,0.007-0.117,0.017-0.175,0.025c-0.084,0.015-0.167,0.03-0.25,0.047
		c-0.056,0.009-0.112,0.021-0.167,0.033c-0.087,0.019-0.173,0.041-0.258,0.063c-0.049,0.013-0.099,0.024-0.147,0.038
		c-0.129,0.035-0.256,0.075-0.38,0.118c-0.044,0.016-0.087,0.032-0.13,0.048c-0.084,0.031-0.168,0.063-0.25,0.096
		c-0.057,0.022-0.113,0.048-0.168,0.072c-0.068,0.03-0.135,0.059-0.2,0.09c-0.06,0.028-0.118,0.059-0.177,0.088
		c-0.062,0.03-0.122,0.063-0.182,0.095c-0.059,0.032-0.119,0.064-0.177,0.099c-0.058,0.033-0.113,0.067-0.17,0.103
		c-0.058,0.035-0.117,0.071-0.176,0.109c-0.053,0.035-0.107,0.072-0.162,0.108c-0.058,0.039-0.115,0.079-0.171,0.12
		c-0.053,0.039-0.104,0.078-0.156,0.117c-0.078,0.06-0.155,0.12-0.229,0.182c-0.076,0.063-0.152,0.125-0.227,0.19
		c-0.226,0.199-0.443,0.41-0.652,0.636c-5.97,6.425-4.835,22.983,3.864,26.159c1.648,1.186,1.828,6.02,2.915,10.733l-0.275,0.404
		c0.014,0.063,0.029,0.123,0.044,0.188c0.024-0.036,0.047-0.07,0.072-0.105c-0.021,0.044-0.043,0.088-0.065,0.134
		c1.057,4.256,2.953,8.392,7.417,9.541l-4.102,2.44l4.888-1.618l-0.766,1.648l0.486,0.068l0.06,0.005c0.249,0,0.539-0.2,1.574-0.991
		L39.165,94.6l3.345-2.24l-1.112,3.213l2.393-2.532l-0.543,3.769l1.93-4.602l0.398,2.258l1.731-2.57l0.781,3.071l0.701-2.712
		l0.775,1.16l1.009-1.641l0.59,2.068l1.293-1.518l-0.264,1.43l3.026-3.364l0.049,0.058h0.173c0.029,0,0.06-0.003,0.087-0.008
		l0.277,2.409l1.328-2.372c3.89-0.547,5.73-4.519,7.054-8.835l-0.249-0.438C65.156,77.139,65.965,72.797,67.625,70.779z
		 M56.864,89.773l-0.187,0.022l-0.407,0.727l-0.176-1.537l-0.129,0.037l0.135-0.702l-2.722,3.025l0.29-1.567l-2.179,2.556
		l-0.672-2.354l-1.28,2.084l-1.049-1.566l-0.396,1.534l-0.481-1.896l-1.633,2.423l-0.516-2.922l-0.682,1.628l0.057-0.397
		l-1.643,1.739l0.714-2.063l-2.085,1.397l1.15-1.715l-0.71,0.022c-0.272,0.009-0.638,0.258-1.754,1.11
		c-0.089,0.069-0.186,0.143-0.283,0.218l0.734-1.581l-0.139,0.046l0.039-0.022l-1.007-0.152c-6.495-0.988-7.718-8.187-8.7-13.972
		c-0.549-3.231-0.983-5.783-2.246-6.692l-0.087-0.046c-3.236-1.182-5.63-4.377-6.743-8.999c-1.475-6.13-0.205-13.101,3.02-16.571
		c1.658-1.784,3.719-2.602,6.094-2.412l0.036,0.004l0.036-0.004c0.294-0.035,0.593-0.052,0.887-0.052
		c1.967,0,3.695,0.771,5.524,1.587c0.519,0.233,1.056,0.472,1.605,0.698c1.656,0.679,3.74,1.372,6.39,1.23
		c2.133-0.116,3.494-0.838,4.443-1.456c0.496-0.323,0.961-0.678,1.412-1.021c1.629-1.242,3.169-2.415,6.321-2.415
		c0.663,0,1.387,0.053,2.15,0.16c3.049,0.425,6.95,1.139,10.096,2.913c5.079,2.867,6.979,7.818,5.807,15.136
		c-1.522,9.502-3.214,9.976-5.174,10.522c-1.022,0.285-2.18,0.607-3.383,2.069c-1.301,1.579-2.084,4.475-2.912,7.541
		C63.017,83.333,61.411,89.274,56.864,89.773z"/>
	<path fill="#603913" d="M31.38,80.825c0.002,0.008,0.005,0.019,0.007,0.028c0.021-0.046,0.044-0.09,0.065-0.134
		C31.428,80.755,31.405,80.789,31.38,80.825z"/>
	<path fill="#603913" d="M67.907,71.01c1.058-1.283,2.053-1.562,3.016-1.83c1.074-0.299,2.077-0.582,3.008-1.949l-0.059-0.18
		l0.137,0.064c0.946-1.459,1.818-4.081,2.613-9.044c1.226-7.653-0.792-12.851-6.17-15.885c-3.252-1.835-7.241-2.567-10.354-3.001
		c-0.795-0.111-1.553-0.168-2.249-0.168c-3.397,0-5.11,1.305-6.765,2.565c-0.438,0.335-0.894,0.682-1.368,0.989
		c-0.16,0.104-0.338,0.212-0.526,0.318l0.727-0.013c0.203-0.132,0.4-0.271,0.595-0.411c0.651-0.471,1.266-0.974,1.937-1.435
		c0.005-0.003,0.011-0.006,0.013-0.008c0.072-0.05,0.146-0.099,0.22-0.147c0.014-0.009,0.029-0.02,0.046-0.029
		c0.062-0.041,0.125-0.081,0.19-0.121c0.021-0.013,0.043-0.025,0.063-0.039c0.059-0.036,0.118-0.071,0.18-0.106
		c0.023-0.016,0.052-0.03,0.077-0.047c0.058-0.031,0.114-0.063,0.174-0.096c0.028-0.017,0.057-0.03,0.086-0.046
		c0.057-0.03,0.114-0.061,0.174-0.089c0.031-0.019,0.062-0.032,0.092-0.047c0.061-0.028,0.121-0.058,0.183-0.087
		c0.03-0.013,0.061-0.027,0.092-0.041c0.063-0.029,0.128-0.056,0.193-0.083c0.03-0.012,0.061-0.025,0.09-0.038
		c0.071-0.028,0.146-0.055,0.219-0.083c0.027-0.008,0.05-0.018,0.076-0.028c0.097-0.034,0.195-0.066,0.296-0.099
		c0.004-0.001,0.006-0.002,0.009-0.003c0.106-0.032,0.214-0.063,0.323-0.094c0.02-0.006,0.04-0.01,0.06-0.015
		c0.09-0.023,0.18-0.046,0.271-0.067c0.037-0.008,0.074-0.016,0.111-0.023c0.077-0.016,0.154-0.032,0.234-0.046
		c0.044-0.009,0.09-0.017,0.136-0.023c0.073-0.014,0.148-0.024,0.226-0.036c0.05-0.007,0.1-0.013,0.15-0.019
		c0.073-0.011,0.149-0.02,0.226-0.027c0.054-0.006,0.109-0.012,0.162-0.017c0.077-0.007,0.155-0.013,0.233-0.019
		c0.056-0.003,0.113-0.007,0.172-0.009c0.078-0.005,0.159-0.008,0.241-0.011c0.059-0.002,0.121-0.003,0.182-0.004
		c0.082-0.002,0.165-0.002,0.252-0.002c0.062,0,0.124,0,0.188,0.002c0.088,0.002,0.178,0.004,0.269,0.008
		c0.062,0.003,0.126,0.005,0.19,0.009c0.096,0.004,0.192,0.01,0.291,0.018c0.062,0.005,0.124,0.007,0.188,0.013
		c0.11,0.009,0.223,0.02,0.336,0.032c0.055,0.005,0.108,0.01,0.165,0.016c0.172,0.019,0.345,0.04,0.523,0.065
		c0.405,0.056,0.813,0.117,1.224,0.182c0.012,0.002,0.023,0.004,0.036,0.005c0.407,0.065,0.817,0.136,1.228,0.213
		c0.013,0.002,0.025,0.004,0.04,0.007c0.41,0.076,0.82,0.158,1.23,0.247c0.013,0.003,0.025,0.007,0.037,0.008
		c0.413,0.09,0.823,0.188,1.231,0.293c0.008,0.003,0.019,0.005,0.027,0.008c0.411,0.106,0.819,0.221,1.223,0.345
		c0.006,0.002,0.013,0.004,0.02,0.006c0.406,0.125,0.806,0.259,1.202,0.405c0.007,0.002,0.012,0.003,0.015,0.004
		c0.396,0.147,0.788,0.303,1.171,0.472c0.003,0.001,0.008,0.003,0.011,0.006c0.384,0.168,0.761,0.348,1.128,0.541
		c0.002,0,0.002,0.002,0.003,0.003l0,0c0.134,0.071,0.268,0.141,0.397,0.214c4.399,2.481,7.357,6.966,5.99,15.511
		c-2.314,14.448-5.172,8.56-8.637,12.766c-1.66,2.018-2.469,6.359-3.688,10.424l0.249,0.438c0.343-1.115,0.651-2.255,0.949-3.364
		C65.943,75.291,66.705,72.469,67.907,71.01z"/>
	<path fill="#603913" d="M39.559,42.733c-0.54-0.221-1.07-0.458-1.585-0.688c-1.903-0.85-3.698-1.652-5.821-1.652
		c-0.311,0-0.626,0.018-0.936,0.053c-2.593-0.194-4.846,0.7-6.651,2.646c-3.38,3.637-4.723,10.886-3.195,17.236
		c0.557,2.309,1.427,4.278,2.555,5.852l0.354-0.144l-0.095,0.491c1.195,1.547,2.657,2.671,4.338,3.296
		c0.993,0.768,1.42,3.286,1.915,6.196c0.246,1.45,0.517,3.037,0.899,4.617l0.275-0.404c-1.087-4.714-1.267-9.548-2.915-10.733
		c-8.699-3.176-9.834-19.734-3.864-26.159c0.208-0.226,0.426-0.437,0.652-0.636c0.075-0.065,0.151-0.128,0.227-0.19
		c0.075-0.062,0.152-0.122,0.229-0.182c0.052-0.039,0.103-0.078,0.156-0.117c0.056-0.041,0.113-0.081,0.171-0.12
		c0.054-0.036,0.108-0.073,0.162-0.108c0.059-0.038,0.118-0.074,0.176-0.109c0.057-0.035,0.113-0.069,0.17-0.103
		c0.058-0.034,0.118-0.066,0.177-0.099c0.06-0.032,0.12-0.064,0.182-0.095c0.059-0.029,0.117-0.06,0.177-0.088
		c0.065-0.031,0.132-0.06,0.2-0.09c0.055-0.024,0.111-0.05,0.168-0.072c0.082-0.033,0.167-0.064,0.25-0.096
		c0.043-0.016,0.085-0.032,0.13-0.048c0.125-0.043,0.251-0.083,0.38-0.118c0.048-0.014,0.098-0.025,0.147-0.038
		c0.085-0.022,0.17-0.045,0.258-0.063c0.055-0.013,0.111-0.024,0.167-0.033c0.083-0.017,0.166-0.032,0.25-0.047
		c0.058-0.009,0.117-0.019,0.175-0.025c0.084-0.013,0.169-0.023,0.254-0.032c0.059-0.006,0.118-0.012,0.177-0.018
		c0.089-0.006,0.18-0.012,0.27-0.016c0.056-0.003,0.114-0.007,0.171-0.008c0.1-0.002,0.202-0.002,0.303-0.001
		c0.05,0,0.098-0.001,0.147,0c0.153,0.005,0.306,0.012,0.462,0.024c0.179-0.021,0.355-0.035,0.529-0.043
		c0.056-0.004,0.111-0.004,0.168-0.005c0.117-0.003,0.235-0.006,0.35-0.004c0.064,0.001,0.129,0.004,0.193,0.006
		c0.107,0.005,0.212,0.011,0.316,0.019c0.066,0.005,0.13,0.011,0.195,0.018c0.104,0.01,0.207,0.022,0.311,0.037
		c0.062,0.01,0.123,0.017,0.184,0.027c0.109,0.018,0.218,0.038,0.326,0.06c0.052,0.011,0.106,0.021,0.157,0.031
		c0.143,0.03,0.282,0.063,0.422,0.1c0.019,0.004,0.037,0.008,0.054,0.014c0.159,0.042,0.317,0.089,0.475,0.137
		c0.043,0.013,0.087,0.027,0.129,0.042c0.114,0.036,0.228,0.074,0.342,0.114c0.053,0.019,0.108,0.039,0.162,0.058
		c0.103,0.038,0.207,0.076,0.31,0.116c0.053,0.021,0.108,0.041,0.163,0.063c0.106,0.041,0.211,0.083,0.317,0.126
		c0.048,0.02,0.098,0.041,0.146,0.062c0.12,0.05,0.24,0.101,0.362,0.153c0.031,0.014,0.063,0.026,0.096,0.041
		c0.446,0.193,0.896,0.396,1.353,0.6c0.373,0.164,0.75,0.33,1.136,0.487l0.965-0.018C40.101,42.949,39.822,42.841,39.559,42.733z"/>
	<path fill="#603913" d="M24.279,66.036l-0.354,0.144c0.085,0.117,0.17,0.235,0.258,0.348L24.279,66.036z"/>
	<path fill="#603913" d="M40.386,43.053l-0.965,0.018c1.802,0.738,3.778,1.336,6.231,1.204c1.873-0.102,3.156-0.676,4.264-1.396
		l-0.727,0.013c-0.834,0.475-1.957,0.934-3.557,1.021C43.542,44.025,41.821,43.58,40.386,43.053z"/>
	<path fill="#603913" d="M55.387,76.7c-0.163,0.234-0.412,0.377-0.678,0.471c-0.267,0.092-0.554,0.132-0.845,0.144
		c-0.286,0.009-0.591,0.002-0.859-0.037h-0.001l-0.043-0.002c-1.624-0.033-3.246-0.023-4.868-0.01
		c-1.621,0.027-3.239,0.062-4.858,0.112c-1.614,0.035-3.24,0.117-4.831,0.102c-0.195-0.007-1.571-0.426-1.688-0.444
		c-0.232-0.036-2.603-1.684-2.854-2.004c0.174,0.37,0.801,1.572,1.043,1.913c0.238,0.335,1.305,0.853,1.781,1.002
		c0.232,0.073,1.455,0.278,1.663,0.301c1.651,0.173,3.274,0.192,4.903,0.19c1.628-0.004,3.253-0.063,4.876-0.143
		c1.622-0.096,4.811-0.271,4.811-0.271c0.344,0.005,1.703-0.121,1.999-0.28c0.294-0.155,0.872-0.443,1.012-0.753
		c0.143-0.307,1.039-1.256,0.97-1.554C56.922,75.746,55.552,76.471,55.387,76.7z"/>
	<path fill="#603913" d="M25.22,54.56c0.036,0.062,0.01,0.016,0.017,0.029l-0.001-0.004l-0.01-0.016L25.22,54.56z"/>
	<path fill="#603913" d="M67.507,53.186c-0.008,0.068-0.021,0.138-0.031,0.204c0.043,0.06,0.086,0.119,0.129,0.179L67.507,53.186z"
		/>
	<path fill="#603913" d="M52.143,56.855c1.812,0.932,3.832,1.407,5.86,1.526c2.029,0.119,4.111-0.113,6.052-0.915
		c0.964-0.404,1.885-0.99,2.618-1.802c0.737-0.809,1.226-1.871,1.352-2.961c0,0-2.116-3.107-3.736-4.502
		c-0.815-0.688-1.698-1.31-2.668-1.799c-0.965-0.489-2.03-0.834-3.133-0.912c-1.101-0.085-2.219,0.1-3.22,0.52
		c-1.007,0.42-1.898,1.042-2.682,1.757c-0.775,0.724-1.451,1.536-2.038,2.404c-0.585,0.866-1.093,1.783-1.491,2.74
		c0.504-0.906,1.096-1.757,1.738-2.559c0.647-0.796,1.355-1.544,2.147-2.175c1.554-1.286,3.521-2.078,5.464-1.83
		c1.94,0.234,3.71,1.312,5.201,2.642c1.458,1.28,2.716,2.805,3.868,4.399c0.011-0.066,0.023-0.136,0.031-0.204l0.098,0.383
		c-0.043-0.06-0.086-0.119-0.129-0.179c-0.128,0.809-0.482,1.561-1.034,2.179c-0.591,0.674-1.385,1.182-2.235,1.57
		c-1.719,0.771-3.68,1.034-5.607,1.014c-1.932-0.046-3.884-0.38-5.663-1.159c-0.889-0.39-1.727-0.902-2.427-1.574
		c-0.697-0.671-1.238-1.53-1.452-2.507c0.055,0.494,0.191,0.983,0.401,1.443C49.673,54.814,51.246,56.378,52.143,56.855z"/>
	<path fill="#603913" d="M23.123,56.375c0.002,0.005,0.004,0.039,0.002,0.069c0.005-0.017,0.007-0.032,0.008-0.046
		C23.122,56.373,23.118,56.354,23.123,56.375z"/>
	<path fill="#603913" d="M23.125,56.449c-0.001,0.004-0.003,0.014-0.01,0.051l0.007-0.033c0.001-0.004,0.001-0.006,0.001-0.009
		c0-0.002,0-0.002,0-0.002C23.124,56.454,23.124,56.451,23.125,56.449z"/>
	<polygon fill="#603913" points="23.124,56.456 23.125,56.446 23.125,56.449 	"/>
	<path fill="#603913" d="M70.721,52.473c-0.006,0.037-0.015,0.082-0.023,0.12c0.013,0.038,0.028,0.073,0.039,0.111L70.721,52.473z"
		/>
	<path fill="#603913" d="M37.347,63.116c0,0-1.682,4.338,0.27,2.758C39.568,64.291,37.347,63.116,37.347,63.116z"/>
	<path fill="#603913" d="M41.055,65.874c1.952-1.583-0.271-2.758-0.271-2.758S39.104,67.454,41.055,65.874z"/>
	<path fill="#603913" d="M27.693,51.919c-0.689,1.151-0.897,2.172-0.743,2.547c0.653,1.597,2.032,2.296,4.098,2.08
		c3.097-0.322,6.493-2.606,6.921-3.635c0.049-0.121,0.053-0.211,0.008-0.264c-2.134-2.632-4.234-3.859-6.245-3.649
		C29.527,49.229,28.173,51.117,27.693,51.919z M32.437,52.101c0.07,0.683-0.427,1.298-1.11,1.369s-1.296-0.427-1.368-1.11
		c-0.071-0.683,0.427-1.296,1.109-1.367C31.752,50.921,32.365,51.42,32.437,52.101z"/>
	<path fill="#603913" d="M58.212,56.237c2.771,0,4.989-0.979,5.601-1.929c0.218-0.337,0.23-0.701,0.042-1.117
		c-1.817-4.005-4.288-4.845-6.043-4.845c-2.622,0-5.107,1.815-6.114,3.521c-0.438,0.744-0.548,1.386-0.313,1.813
		C52.222,55.193,58.212,56.237,58.212,56.237z M55.781,50.285c0.687,0,1.244,0.561,1.244,1.245c0,0.688-0.558,1.246-1.244,1.246
		c-0.688,0-1.246-0.559-1.246-1.246C54.535,50.846,55.093,50.285,55.781,50.285z"/>
	<path fill="#603913" d="M88.824,40.173c-0.013,0.008-0.024,0.017-0.036,0.025"/>
	<path fill="#603913" d="M81.88,48.705c0.039-0.234,0.083-0.467,0.12-0.701c-0.024,0.015-0.049,0.028-0.074,0.044
		C81.91,48.267,81.896,48.485,81.88,48.705z"/>
	<polygon fill="#603913" points="81.22,66.799 80.054,65.426 80.001,65.976 	"/>
	<polygon fill="#603913" points="78.137,65.318 77.917,65.396 77.915,65.658 78.098,65.848 	"/>
	<polygon fill="#603913" points="79.387,66.373 79.415,66.113 79.209,66.183 	"/>
	<path fill="#603913" d="M77.757,67.728l0.206-0.076L78,67.148c-0.03-0.03-0.062-0.061-0.091-0.093v0.168l-0.469-0.355l-0.005-0.005
		l-0.036,0.503L77.757,67.728z"/>
	<polygon fill="#603913" points="77.942,67.916 77.963,67.651 77.757,67.728 	"/>
	<polygon fill="#603913" points="76.838,66.797 76.816,66.394 76.607,66.235 76.381,66.334 	"/>
	<polygon fill="#603913" points="77.399,67.366 77.436,66.863 76.816,66.394 76.838,66.797 	"/>
	<polygon fill="#603913" points="76.231,66.183 76.381,66.334 76.607,66.235 75.711,65.553 75.992,66.509 76.245,66.396 	"/>
	<path fill="#603913" d="M76.098,66.865l0.225,0.763l-0.035-0.571C76.225,66.992,76.16,66.93,76.098,66.865z"/>
	<path fill="#603913" d="M96.836,42.855c-0.013-0.091-0.026-0.186-0.063-0.303c-0.008-0.031-0.018-0.058-0.035-0.099l-0.029-0.064
		l-0.023-0.044c-0.025-0.044-0.053-0.085-0.078-0.123c-0.208-0.294-0.424-0.523-0.649-0.754c-0.451-0.454-0.939-0.854-1.459-1.219
		c-1.037-0.712-2.22-1.32-3.563-1.409c-0.665-0.041-1.361,0.084-1.962,0.393c-0.076,0.038-0.145,0.086-0.219,0.128
		c0.012,0.134,0.022,0.266,0.033,0.399c2.997-1.901,6.942,1.879,7.492,2.823c0.61,1.05-1.509,12.065-2.835,12.603
		c-1.327,0.538-3.78,2.54-4.452,3.399c-0.67,0.858-2.174,3.297-4.307,6.88c-2.132,3.585-5.975,4.578-8.278,5.451
		c-0.072,0.028-0.143,0.046-0.213,0.067l0.045,0.146l-0.295-0.073c-1.162,0.273-1.976-0.179-2.453-0.603l-0.352-0.089l0.143,0.484
		c0.011,0.009,0.022,0.019,0.032,0.027c0.272,0.217,0.586,0.394,0.921,0.509c0.674,0.241,1.417,0.192,2.047-0.023L78,70.692
		c0.57-0.226,1.138-0.463,1.697-0.727c1.117-0.524,2.185-1.18,3.119-1.997c0.937-0.808,1.709-1.82,2.292-2.888
		c1.252-2.077,2.524-4.174,3.959-6.1c0.341-0.457,0.784-0.85,1.238-1.238c0.457-0.387,0.93-0.756,1.417-1.099
		c0.487-0.346,0.99-0.674,1.501-0.934c0.138-0.068,0.229-0.108,0.399-0.18c0.277-0.142,0.373-0.301,0.485-0.445
		c0.203-0.294,0.34-0.582,0.472-0.874c0.503-1.162,0.829-2.346,1.136-3.537c0.305-1.19,0.541-2.395,0.752-3.604
		c0.105-0.605,0.192-1.214,0.265-1.827c0.068-0.616,0.13-1.229,0.13-1.878C96.861,43.203,96.857,43.038,96.836,42.855z"/>
	<path fill="#603913" d="M76.245,66.396l-0.253,0.112l0.105,0.356c0.063,0.064,0.127,0.127,0.189,0.191L76.245,66.396z"/>
	<polygon fill="#603913" points="78.156,65.062 78.332,65.25 78.721,65.113 77.919,64.571 77.917,65.396 78.137,65.318 	"/>
	<polygon fill="#603913" points="79.209,66.183 79.415,66.113 79.468,65.62 79.46,65.61 79.329,65.523 78.939,65.259 78.876,65.828 
			"/>
	<path fill="#603913" d="M79.157,60.554c-0.116,0.754-0.173,1.515-0.116,2.264c0.031,0.409,0.095,0.814,0.207,1.204
		c0.057,0.193,0.124,0.38,0.207,0.559c0.029,0.064,0.064,0.134,0.102,0.198l0.059-0.565C79.615,64.213,79.192,62.484,79.157,60.554z
		"/>
	<polygon fill="#603913" points="78.699,65.641 78.738,65.125 78.721,65.113 78.332,65.25 	"/>
	<polygon fill="#603913" points="78.876,65.828 78.939,65.259 78.738,65.125 78.699,65.641 	"/>
	<path fill="#603913" d="M78.098,65.848l-0.183-0.189l-0.004,0.977l-0.002,0.421c0.029,0.032,0.061,0.063,0.091,0.093L78.098,65.848
		z"/>
	<polygon fill="#603913" points="79.468,65.617 79.46,65.61 79.468,65.62 	"/>
	<polygon fill="#603913" points="75.246,70.361 75.028,70.329 75.022,70.327 75.23,70.375 	"/>
	<polygon fill="#603913" points="75.335,69.895 75.267,69.881 75.279,70.093 75.293,70.308 75.421,70.166 	"/>
	<polygon fill="#603913" points="75.508,70.438 75.421,70.166 75.293,70.308 75.296,70.368 75.246,70.361 75.23,70.375 	"/>
	<polygon fill="#603913" points="73.046,70.039 73.055,70.073 73.078,70.042 	"/>
	<path fill="#603913" d="M73.113,70.047l-0.035-0.005l-0.023,0.031l0.086,0.293l0.352,0.089
		C73.324,70.304,73.197,70.158,73.113,70.047z"/>
	<path fill="#603913" d="M76.24,71.131l-0.045-0.146c-0.085,0.025-0.169,0.055-0.25,0.073L76.24,71.131z"/>
	<polygon fill="#603913" points="75.25,69.623 75.267,69.881 75.335,69.895 	"/>
	<path fill="#603913" d="M88.744,39.786c0.014-0.01,0.03-0.017,0.044-0.025c-0.011-0.134-0.021-0.266-0.033-0.399
		c-0.018,0.011-0.035,0.021-0.055,0.031C88.716,39.526,88.73,39.659,88.744,39.786z"/>
	<path fill="#603913" d="M88.693,39.82c0.017-0.011,0.034-0.022,0.051-0.034c-0.014-0.127-0.028-0.26-0.044-0.394
		c-0.019,0.013-0.038,0.022-0.056,0.034C88.66,39.558,88.677,39.688,88.693,39.82z"/>
	<path fill="#603913" d="M77.44,66.868l0.469,0.355v-0.168c-0.15-0.151-0.303-0.303-0.452-0.454l-0.021,0.262L77.44,66.868z"/>
	<path fill="#603913" d="M75.823,66.585c0.09,0.094,0.183,0.186,0.274,0.28l-0.105-0.356L75.823,66.585z"/>
	<polygon fill="#603913" points="76.378,68.493 76.107,68.677 76.398,68.814 	"/>
	<polygon fill="#603913" points="76.803,66.146 76.607,66.235 76.816,66.394 	"/>
	<polygon fill="#603913" points="75.243,67.869 74.949,68.125 75.385,68.332 	"/>
	<path fill="#603913" d="M75.25,69.623l-0.286-0.903L74.52,68.5l0.292-0.254l-0.068-0.22l0.206,0.099l0.294-0.256l0.142,0.463
		l0.445,0.213l-0.046-0.613l-0.815-0.377l-0.96-0.439c-0.025,0.039-0.053,0.076-0.078,0.115l0.313,0.956l0.523,1.589l0.499,0.105
		L75.25,69.623z"/>
	<path fill="#603913" d="M77.911,66.635l0.004-0.977l-0.186-0.195l0.188-0.066l0.002-0.825l0.802,0.542l0.019-0.007l-0.001,0.019
		l0.201,0.134l0.021-0.188l-0.377-0.409l-0.91-0.984l-0.101,1.343l-0.115,1.582c0.149,0.151,0.302,0.303,0.452,0.454L77.911,66.635z
		"/>
	<polygon fill="#603913" points="74.52,68.5 74.964,68.72 74.812,68.246 	"/>
	<path fill="#603913" d="M73.376,69.635l-0.199,0.273l0.503,0.113C73.558,69.895,73.447,69.757,73.376,69.635z"/>
	<polygon fill="#603913" points="75.028,70.329 75.246,70.361 75.293,70.308 75.279,70.093 75.267,69.881 74.768,69.775 
		74.942,70.311 75.022,70.327 	"/>
	<path fill="#603913" d="M76.322,67.628l-0.225-0.763c-0.092-0.095-0.185-0.187-0.274-0.28l0.169-0.076l-0.281-0.956l0.896,0.683
		l0.195-0.089l0.014,0.247l0.619,0.47l0.021-0.262c-0.272-0.274-0.543-0.552-0.818-0.821l-1.09-1.075l0.11,1.514l0.125,1.713
		l0.575,0.263L76.322,67.628z"/>
	<polygon fill="#603913" points="72.885,70.306 73.141,70.366 73.055,70.073 	"/>
	<path fill="#603913" d="M73.093,70.021l-0.015,0.021l0.035,0.005C73.106,70.039,73.099,70.03,73.093,70.021z"/>
	<path fill="#603913" d="M72.885,70.306l0.17-0.232l-0.009-0.034l0.032,0.003l0.015-0.021c-0.07-0.095-0.107-0.157-0.107-0.157
		l0.191,0.044l0.199-0.273c0.071,0.122,0.182,0.26,0.304,0.387l1.263,0.289l-0.175-0.535l-1.683-0.353l-1.072-0.225l0.582,0.894
		c0.21,0.32,0.427,0.543,0.688,0.759l-0.143-0.484L72.885,70.306z"/>
	<path fill="#603913" d="M79.468,65.617l0.089-0.839c-0.037-0.064-0.072-0.134-0.102-0.198c-0.083-0.179-0.15-0.365-0.207-0.559
		c-0.112-0.39-0.176-0.795-0.207-1.204c-0.057-0.749,0-1.51,0.116-2.264c-0.023-1.326,0.135-2.747,0.742-3.77
		c0.93-1.564,1.524-5.719,1.838-8.621c-0.013,0.007-0.025,0.016-0.039,0.023c0.014-0.01,0.026-0.021,0.041-0.032
		c0.188-1.742,0.276-3.03,0.276-3.03s2.775-0.868,5.811-4.508c0.275-0.331,0.565-0.592,0.867-0.796
		c-0.017-0.132-0.033-0.263-0.049-0.394c-0.178,0.112-0.347,0.231-0.498,0.367c-0.25,0.218-0.478,0.471-0.662,0.708
		c-0.743,0.939-1.574,1.809-2.479,2.598c-0.908,0.78-1.905,1.488-3.006,1.972l-0.034,0.015l-0.005,0.034
		c-0.202,1.611-0.413,3.222-0.687,4.817c-0.259,1.598-0.553,3.194-0.995,4.728c-0.111,0.382-0.238,0.756-0.378,1.117
		c-0.068,0.18-0.146,0.354-0.228,0.52c-0.071,0.151-0.187,0.319-0.296,0.526c-0.411,0.805-0.581,1.666-0.666,2.51
		c-0.079,0.848-0.063,1.689,0,2.52c0.067,0.802,0.17,1.579,0.344,2.379l0.01-0.081l0.013,0.19c-0.009-0.038-0.014-0.073-0.022-0.109
		L78.96,65.07l0.5,0.54L79.468,65.617z"/>
	<polygon fill="#603913" points="76.378,68.493 76.359,68.194 75.784,67.932 75.83,68.545 76.107,68.677 	"/>
	<polygon fill="#603913" points="75.293,70.308 75.246,70.361 75.296,70.368 	"/>
	<polygon fill="#603913" points="79.329,65.523 79.46,65.61 78.96,65.07 78.939,65.259 	"/>
	<path fill="#603913" d="M79.065,64.155l-0.01,0.081c0.009,0.036,0.014,0.071,0.022,0.109L79.065,64.155z"/>
	<polygon fill="#603913" points="77.729,65.463 77.915,65.658 77.917,65.396 	"/>
	<polygon fill="#603913" points="78.739,65.106 78.721,65.113 78.738,65.125 	"/>
	<path fill="#603913" d="M73.872,67.051l0.059,0.18c0.025-0.039,0.053-0.076,0.078-0.115L73.872,67.051z"/>
	<polygon fill="#603913" points="79.804,65.982 79.468,65.62 79.415,66.113 	"/>
	<polygon fill="#603913" points="75.172,68.405 75.198,68.835 75.599,69.03 75.458,68.571 	"/>
	<path fill="#603913" d="M78.357,67.507c-0.118-0.12-0.24-0.239-0.357-0.358l-0.037,0.503L78.357,67.507z"/>
	<polygon fill="#603913" points="78.819,66.313 79.209,66.183 78.876,65.828 	"/>
	<polygon fill="#603913" points="78.137,65.318 78.332,65.25 78.156,65.062 	"/>
	<polygon fill="#603913" points="75.892,68.823 75.848,68.799 75.851,68.851 	"/>
	<polygon fill="#603913" points="75.23,70.375 75.022,70.327 74.945,70.315 75.035,70.589 	"/>
	<path fill="#603913" d="M75.599,69.03l-0.4-0.195l0.052,0.788l0.085,0.271l0.284,0.06l-0.198,0.212l0.087,0.271l-0.277-0.063
		l-0.195,0.214l-0.09-0.273l-1.134-0.166c0.02,0.017,0.037,0.035,0.056,0.051c0.199,0.168,0.419,0.304,0.655,0.396
		c0.474,0.184,1.01,0.184,1.536,0.037l0.026-0.008l-0.102-0.337L75.599,69.03z"/>
	<path fill="#603913" d="M80.516,55.364c-0.213,0.841-0.442,1.676-0.702,2.505c-0.262,0.815-0.479,1.627-0.623,2.457
		c-0.013,0.076-0.021,0.152-0.033,0.228c0.035,1.931,0.458,3.659,0.458,3.659l-0.059,0.565c0.059,0.107,0.121,0.205,0.176,0.269
		l0.321,0.379l0.112-1.155l0.009-0.092l-0.021-0.099c-0.346-1.509-0.574-3.121-0.486-4.666c0.049-0.771,0.183-1.536,0.492-2.193
		c0.073-0.158,0.184-0.328,0.282-0.547c0.094-0.202,0.172-0.402,0.243-0.603c0.142-0.401,0.245-0.807,0.342-1.209
		c0.368-1.615,0.571-3.237,0.744-4.858c0.039-0.435,0.076-0.866,0.109-1.299c-0.089,0.529-0.175,1.06-0.272,1.589
		C81.296,51.992,80.941,53.686,80.516,55.364z"/>
	<polygon fill="#603913" points="75.619,69.954 75.335,69.895 75.421,70.166 	"/>
	<path fill="#603913" d="M89.294,39.897c0.491-0.229,1.037-0.309,1.585-0.257c1.101,0.104,2.166,0.653,3.101,1.336
		c0.47,0.344,0.909,0.731,1.313,1.145c0.199,0.204,0.396,0.426,0.536,0.631c0.069,0.035,0.085,0.34,0.084,0.615
		c-0.023,1.149-0.223,2.359-0.413,3.541c-0.193,1.188-0.442,2.369-0.705,3.544c-0.273,1.17-0.57,2.345-0.981,3.438
		c-0.106,0.269-0.225,0.536-0.359,0.747c-0.061,0.102-0.156,0.195-0.155,0.19c-0.107,0.047-0.293,0.136-0.426,0.207
		c-0.564,0.309-1.071,0.665-1.567,1.036c-0.494,0.371-0.971,0.766-1.431,1.178c-0.45,0.416-0.926,0.839-1.286,1.384
		c-0.69,1.029-1.277,2.091-1.905,3.135l-1.858,3.144c-0.312,0.527-0.619,1.032-1.001,1.494c-0.376,0.465-0.804,0.883-1.264,1.263
		c-0.923,0.758-1.988,1.323-3.093,1.783c-0.554,0.229-1.12,0.43-1.693,0.618l-1.689,0.556l0.11,0.359
		c0.07-0.021,0.141-0.039,0.213-0.067c2.304-0.873,6.146-1.866,8.278-5.451c2.133-3.583,3.637-6.021,4.307-6.88
		c0.672-0.859,3.125-2.861,4.452-3.399c1.326-0.537,3.445-11.553,2.835-12.603c-0.55-0.944-4.495-4.725-7.492-2.823
		c0.013,0.137,0.023,0.274,0.036,0.412C88.975,40.068,89.13,39.973,89.294,39.897z"/>
	<path fill="#603913" d="M73.492,70.455c0.478,0.424,1.291,0.876,2.453,0.603l-0.546-0.136L73.492,70.455z"/>
	<polygon fill="#603913" points="77.362,67.874 77.757,67.728 77.399,67.366 	"/>
	<path fill="#603913" d="M76.059,70.633c-0.526,0.146-1.063,0.146-1.536-0.037c-0.236-0.092-0.456-0.228-0.655-0.396
		c-0.019-0.016-0.036-0.034-0.056-0.051l-0.698-0.103c0.084,0.111,0.211,0.257,0.379,0.408l1.907,0.467l0.546,0.136
		c0.081-0.019,0.165-0.048,0.25-0.073l-0.11-0.359L76.059,70.633z"/>
	<polygon fill="#603913" points="76.633,68.32 76.511,68.265 76.545,68.38 	"/>
	<polygon fill="#603913" points="76.245,66.396 76.381,66.334 76.231,66.183 	"/>
	<path fill="#603913" d="M76.322,67.628l0.188,0.637l0.122,0.056l-0.088,0.06l0.106,0.36l0.188,0.638l-0.569-0.334l-0.379-0.221
		l-0.041,0.027l-0.003-0.052l-0.39-0.228l0.141,0.459l0.565,0.28l0.831,0.407l-0.05-0.938l-0.062-1.111
		c-0.198-0.203-0.398-0.407-0.597-0.611L76.322,67.628z"/>
	<path fill="#603913" d="M78,67.148c0.117,0.119,0.239,0.238,0.357,0.358l-0.395,0.145l-0.021,0.265l-0.186-0.188l-0.395,0.146
		l0.037-0.508l-0.562-0.569l0.046,0.871c0.217,0.218,0.43,0.44,0.645,0.657l0.9,0.914l0.096-1.278l0.117-1.544l-0.544-0.569
		L78,67.148z"/>
	<polygon fill="#603913" points="78.332,65.25 78.137,65.318 78.098,65.848 78.642,66.417 78.699,65.641 	"/>
	<path fill="#603913" d="M76.381,66.334l-0.136,0.063l0.042,0.66c0.198,0.204,0.398,0.408,0.597,0.611l-0.046-0.871L76.381,66.334z"
		/>
	<polygon fill="#603913" points="79.468,65.62 79.804,65.982 79.415,66.113 79.387,66.373 79.209,66.183 78.819,66.313 
		78.876,65.828 78.699,65.641 78.642,66.417 78.971,66.765 79.834,67.67 79.955,66.434 80.001,65.976 79.468,65.617 	"/>
	<path fill="#603913" d="M88.788,40.198c0.012-0.009,0.023-0.018,0.036-0.025c-0.013-0.138-0.023-0.275-0.036-0.412
		c-0.014,0.009-0.03,0.016-0.044,0.025C88.76,39.928,88.774,40.065,88.788,40.198z"/>
	<path fill="#603913" d="M88.745,40.229c0.015-0.012,0.029-0.021,0.043-0.03c-0.014-0.133-0.028-0.271-0.044-0.412
		c-0.017,0.012-0.034,0.023-0.051,0.034C88.712,39.956,88.729,40.092,88.745,40.229z"/>
	<polygon fill="#603913" points="74.743,68.026 74.812,68.246 74.949,68.125 	"/>
	<path fill="#603913" d="M72.985,69.864c0,0,0.037,0.063,0.107,0.157l0.084-0.113L72.985,69.864z"/>
	<polygon fill="#603913" points="76.511,68.265 76.359,68.194 76.378,68.493 76.545,68.38 	"/>
	<polygon fill="#603913" points="75.848,68.799 75.83,68.545 75.385,68.332 75.458,68.571 	"/>
	<path fill="#603913" d="M74.945,70.315l-0.003-0.005l-1.263-0.289c0.043,0.046,0.088,0.089,0.132,0.128L74.945,70.315z"/>
	<path fill="#603913" d="M87.826,40.616c-3.035,3.64-5.811,4.508-5.811,4.508s-0.089,1.288-0.276,3.03
		c0.063-0.053,0.128-0.102,0.191-0.152c0.065-0.946,0.114-1.893,0.139-2.84c1.169-0.366,2.219-1.012,3.205-1.725
		c0.996-0.727,1.896-1.584,2.722-2.502c0.202-0.231,0.388-0.428,0.605-0.603c0.046-0.039,0.096-0.069,0.144-0.104
		c-0.017-0.137-0.033-0.272-0.052-0.408C88.392,40.024,88.102,40.285,87.826,40.616z"/>
	<polygon fill="#603913" points="75.172,68.405 75.458,68.571 75.385,68.332 74.949,68.125 74.812,68.246 74.964,68.72 
		75.198,68.835 	"/>
	<polygon fill="#603913" points="75.022,70.327 74.942,70.311 74.945,70.315 	"/>
	<polygon fill="#603913" points="74.964,68.72 75.25,69.623 75.198,68.835 	"/>
	<path fill="#603913" d="M81.737,48.163c-0.313,2.902-0.908,7.057-1.838,8.621c-0.607,1.022-0.766,2.443-0.742,3.77
		c0.013-0.075,0.021-0.151,0.033-0.228c0.144-0.83,0.361-1.642,0.623-2.457c0.26-0.829,0.489-1.664,0.702-2.505
		c0.426-1.679,0.78-3.372,1.092-5.07c0.098-0.529,0.184-1.06,0.272-1.589c0.016-0.22,0.03-0.438,0.046-0.657
		C81.865,48.087,81.801,48.124,81.737,48.163z"/>
	<polygon fill="#603913" points="75.892,68.823 76.107,68.677 75.83,68.545 75.848,68.799 	"/>
	<path fill="#603913" d="M73.812,70.149c-0.044-0.039-0.089-0.082-0.132-0.128l-0.503-0.113l-0.084,0.113
		c0.006,0.009,0.014,0.018,0.021,0.025L73.812,70.149z"/>
	<polygon fill="#603913" points="76.84,69.378 76.651,68.74 76.545,68.38 76.378,68.493 76.398,68.814 76.107,68.677 75.892,68.823 
		76.271,69.044 	"/>
	<polygon fill="#603913" points="76.322,67.628 76.359,68.194 76.511,68.265 	"/>
	<path fill="#603913" d="M79.557,64.778l-0.089,0.839l0.533,0.358l0.053-0.55l-0.321-0.379
		C79.678,64.983,79.615,64.886,79.557,64.778z"/>
	<path fill="#603913" d="M86.886,45.195c0.88-0.458,1.776-0.883,2.685-1.252c0.9-0.36,1.851-0.672,2.735-0.72
		c0.438-0.02,0.837,0.071,1.03,0.284c0.206,0.227,0.368,0.659,0.415,1.077c0.106,0.864-0.073,1.821-0.342,2.736
		c-0.271,0.922-0.652,1.825-1.062,2.713c-0.391,0.839-0.829,1.673-1.299,2.461c0.056-0.025,0.112-0.052,0.169-0.078l-0.245,0.209
		c0.026-0.043,0.05-0.087,0.076-0.131c-0.829,0.368-1.617,0.777-2.382,1.315c-0.201,0.146-0.402,0.304-0.596,0.491
		c-0.187,0.183-0.396,0.41-0.521,0.723l-0.518,1.289c-0.353,0.861-0.699,1.724-1.064,2.578c-0.177,0.43-0.367,0.854-0.563,1.274
		c-0.096,0.211-0.197,0.418-0.311,0.62c-0.114,0.199-0.215,0.42-0.409,0.55c0.227-0.084,0.385-0.285,0.546-0.454
		c0.155-0.181,0.298-0.371,0.437-0.563c0.278-0.382,0.528-0.783,0.777-1.184c0.485-0.807,0.94-1.628,1.365-2.466
		c0.215-0.417,0.424-0.837,0.621-1.267c0.103-0.242,0.458-0.535,0.809-0.771c0.727-0.479,1.564-0.883,2.383-1.236l0.162-0.071
		l0.083-0.136c1.066-1.756,1.984-3.569,2.568-5.571c0.272-0.997,0.499-2.051,0.336-3.181c-0.1-0.562-0.263-1.131-0.746-1.638
		c-0.257-0.247-0.584-0.394-0.89-0.461c-0.307-0.069-0.603-0.074-0.883-0.057c-0.562,0.04-1.077,0.179-1.572,0.345
		c-0.494,0.167-0.969,0.365-1.433,0.579c-0.929,0.426-1.806,0.932-2.667,1.459c-1.599,0.99-3.123,2.084-4.572,3.271
		c-0.003,0.023-0.008,0.046-0.011,0.068C83.604,47.016,85.227,46.062,86.886,45.195z"/>
	<path fill="#603913" d="M91.218,52.417c-0.057,0.026-0.113,0.053-0.169,0.078c-0.026,0.044-0.05,0.088-0.076,0.131L91.218,52.417z"
		/>
	<path fill="#603913" d="M81.926,48.048c0.025-0.016,0.05-0.029,0.074-0.044c0.003-0.022,0.008-0.045,0.011-0.068
		c-0.027,0.022-0.054,0.042-0.08,0.066C81.928,48.017,81.927,48.032,81.926,48.048z"/>
	<path fill="#603913" d="M81.698,48.187c0.014-0.008,0.026-0.017,0.039-0.023c0.001-0.003,0.001-0.005,0.002-0.009
		C81.725,48.165,81.712,48.177,81.698,48.187z"/>
	<path fill="#603913" d="M81.931,48.002c-0.063,0.051-0.128,0.1-0.191,0.152c-0.001,0.004-0.001,0.006-0.002,0.009
		c0.063-0.039,0.128-0.076,0.188-0.115C81.927,48.032,81.928,48.017,81.931,48.002z"/>
	<path fill="#603913" d="M38.673,61.19c-0.743,0.28-1.423,0.683-2.045,1.177c-0.615,0.499-1.154,1.17-1.368,1.981
		c-0.219,0.809-0.089,1.664,0.192,2.409c0.281,0.754,0.698,1.432,1.133,2.074c0.213,0.318,0.445,0.64,0.618,0.94
		c0.187,0.334,0.393,0.683,0.615,1.007c0.445,0.65,0.971,1.275,1.651,1.758c0.669,0.481,1.541,0.767,2.396,0.697
		c0.856-0.058,1.635-0.411,2.311-0.839c0.68-0.433,1.284-0.947,1.839-1.496c0.561-0.547,1.069-1.131,1.572-1.711
		c0.249-0.292,0.496-0.583,0.752-0.861c0.254-0.269,0.525-0.559,0.804-0.698l0.049-0.025l0.017-0.019
		c0.29-0.336,0.535-0.684,0.754-1.058c0.219-0.372,0.396-0.77,0.513-1.187c0.112-0.416,0.138-0.871,0.005-1.287
		c-0.131-0.422-0.433-0.765-0.782-1.006c-0.621-0.457-1.395-0.727-2.173-0.711c-0.385,0.005-0.771,0.058-1.149,0.12
		c-0.379,0.06-0.758,0.141-1.129,0.121c-0.184-0.011-0.362-0.057-0.513-0.151c-0.161-0.101-0.319-0.209-0.48-0.313
		c-0.322-0.212-0.654-0.416-1-0.595c-0.691-0.356-1.455-0.603-2.245-0.665C40.219,60.784,39.413,60.91,38.673,61.19z M39.863,71.958
		c-0.59-0.39-1.088-0.944-1.522-1.546c-0.221-0.304-0.415-0.611-0.61-0.942c-0.22-0.358-0.452-0.651-0.67-0.966
		c-0.438-0.62-0.842-1.253-1.112-1.936c-0.272-0.678-0.393-1.413-0.222-2.101c0.166-0.688,0.618-1.292,1.178-1.767
		c1.138-0.948,2.585-1.607,4.083-1.527c0.744,0.032,1.477,0.242,2.164,0.555c0.346,0.156,0.679,0.34,1.007,0.535l2.535,1.526
		c0.18,0.105-1.651-1.085-1.453-1.08c0.399,0.007,0.775-0.09,1.152-0.161c0.374-0.076,0.753-0.14,1.132-0.138
		c0.765-0.015,1.516,0.245,2.132,0.698c0.333,0.244,0.607,0.579,0.717,0.977c0.112,0.394,0.058,0.816-0.068,1.205
		c-0.127,0.391-0.337,0.751-0.571,1.09c-0.231,0.33-0.496,0.646-0.776,0.923c0.017-0.007,0.029-0.02,0.049-0.024l-0.066,0.043
		c0.006-0.005,0.011-0.012,0.018-0.019c-0.399,0.178-0.666,0.441-0.951,0.69c-0.288,0.264-0.563,0.535-0.836,0.805
		c-0.543,0.544-1.081,1.084-1.636,1.593c-0.559,0.505-1.451,1.128-1.754,1.372C41.702,73.44,39.863,71.958,39.863,71.958z"/>
	<path fill="#603913" d="M49.007,67.279c-0.02,0.005-0.032,0.018-0.049,0.024c-0.007,0.007-0.012,0.014-0.018,0.019L49.007,67.279z"
		/>
	<g>
		<path fill="#603913" d="M27.208,57.358c-0.851-0.39-1.645-0.898-2.235-1.571c-0.551-0.618-0.906-1.372-1.034-2.179
			c-0.042,0.06-0.086,0.119-0.128,0.179l0.097-0.382c0.008,0.067,0.021,0.137,0.031,0.203c1.152-1.594,2.41-3.119,3.869-4.399
			c1.491-1.329,2.706-1.783,4.648-2.019c1.942-0.248,7.427,5.091,7.931,5.995c0.179-1.246-4.978-6.158-6.082-6.73
			c-0.98-0.509-3.544-0.322-4.51,0.167c-0.97,0.488-1.854,1.111-2.668,1.799c-1.62,1.395-3.737,4.502-3.737,4.502
			c0.126,1.09,0.616,2.153,1.352,2.96c0.733,0.813,1.655,1.398,2.62,1.801c1.939,0.802,5.511,0.303,7.468-0.249
			c1.178-0.335,2.792-1.498,3.977-2.532c-1.121,0.892-2.511,1.773-3.028,1.99C32.975,58.067,28.928,58.127,27.208,57.358z"/>
		<path fill="#603913" d="M40.386,53.186c-0.024,0.214-0.679,0.929-1.581,1.717C39.62,54.252,40.297,53.597,40.386,53.186z"/>
	</g>
</g>
</svg>
